<?xml version="1.0" standalone="no"?>
<!DOCTYPE svg PUBLIC "-//W3C//DTD SVG 20010904//EN"
 "http://www.w3.org/TR/2001/REC-SVG-20010904/DTD/svg10.dtd">
<svg version="1.0" xmlns="http://www.w3.org/2000/svg"
 width="600.000000pt" height="600.000000pt" viewBox="0 0 600.000000 600.000000"
 preserveAspectRatio="xMidYMid meet">
<g transform="translate(0.000000,600.000000) scale(0.100000,-0.100000)"
fill="#000000" stroke="none">
<path d="M1978 5973 c6 -2 18 -2 25 0 6 3 1 5 -13 5 -14 0 -19 -2 -12 -5z"/>
<path d="M2902 5562 c-2 -123 -4 -135 -24 -156 -38 -38 -94 -66 -107 -53 -8 8
-11 8 -11 -1 0 -22 29 -24 57 -4 15 11 38 22 50 26 40 13 44 27 40 177 l-3
144 -2 -133z"/>
<path d="M2930 5550 c0 -120 2 -139 15 -134 8 4 15 13 15 21 0 8 -4 11 -10 8
-6 -4 -9 41 -7 120 1 69 -1 125 -5 125 -5 0 -8 -63 -8 -140z"/>
<path d="M3146 5548 c-10 -5 -25 -11 -34 -12 -10 -2 -16 -6 -14 -9 1 -4 2 -10
2 -13 0 -3 15 3 34 14 32 19 46 19 46 1 0 -4 -6 -9 -12 -11 -34 -8 -188 -105
-188 -117 0 -11 6 -9 23 6 12 11 40 30 62 42 60 33 115 67 127 79 16 16 -22
33 -46 20z"/>
<path d="M3025 5482 c-63 -33 -59 -31 -53 -37 5 -5 118 53 118 61 0 8 -16 2
-65 -24z"/>
<path d="M2607 5443 c-3 -5 26 -26 65 -47 55 -30 72 -36 81 -26 9 10 9 11 0 6
-6 -3 -27 2 -46 13 -19 10 -45 25 -58 33 -13 7 -27 17 -30 22 -4 4 -9 4 -12
-1z"/>
<path d="M2606 5402 c-2 -4 13 -16 35 -26 21 -10 36 -23 33 -27 -3 -5 2 -6 11
-3 9 4 15 8 13 9 -24 20 -88 53 -92 47z"/>
<path d="M2960 5402 c0 -7 -7 -12 -14 -12 -12 0 -16 -27 -18 -149 -3 -169 -10
-160 80 -99 24 17 46 28 49 25 3 -3 10 -1 17 4 6 5 20 16 31 25 17 13 16 13
-12 -1 -36 -17 -47 -19 -39 -7 2 4 -4 8 -14 8 -15 0 -17 -3 -7 -15 12 -15 12
-15 -38 5 -8 3 -15 1 -15 -5 0 -6 5 -11 11 -11 8 0 8 -5 -1 -15 -19 -23 -40
-18 -40 11 0 18 4 23 13 17 6 -4 4 5 -5 19 -13 20 -14 28 -5 32 9 5 9 7 0 12
-21 9 -17 124 4 140 10 7 15 16 10 20 -4 4 -7 2 -7 -4z"/>
<path d="M4415 5380 c3 -5 8 -10 11 -10 2 0 4 5 4 10 0 6 -5 10 -11 10 -5 0
-7 -4 -4 -10z"/>
<path d="M2875 5355 c-16 -13 -34 -24 -39 -25 -4 0 -61 -31 -125 -69 -128 -75
-252 -147 -438 -254 -68 -39 -123 -74 -123 -78 0 -4 16 -13 35 -20 19 -7 35
-16 35 -20 0 -4 7 -10 16 -13 11 -4 63 21 143 67 69 40 188 109 264 152 95 55
137 85 137 97 0 10 -4 18 -10 18 -5 0 -10 -4 -10 -10 0 -5 -10 -10 -22 -11
-21 0 -21 -1 -4 -8 19 -7 19 -8 0 -16 -10 -4 -21 -9 -24 -9 -3 -1 -19 -11 -36
-23 -19 -14 -40 -20 -55 -17 -13 2 -18 1 -11 -2 16 -7 -62 -60 -184 -125 -29
-15 -65 -37 -82 -49 -17 -12 -35 -19 -41 -16 -6 4 -11 2 -11 -4 0 -7 -7 -9
-16 -6 -8 3 -12 2 -9 -3 3 -5 0 -13 -6 -16 -11 -8 -79 24 -79 37 0 12 181 110
195 104 7 -2 12 3 11 12 -1 11 5 16 18 14 12 -2 16 1 10 9 -5 9 -2 10 9 6 9
-3 16 -2 14 3 -1 5 18 19 43 33 25 13 82 45 128 70 45 26 87 47 92 47 6 0 10
5 10 10 0 6 7 10 15 10 8 0 15 5 15 10 0 6 5 10 10 10 6 0 10 -7 10 -15 0 -8
4 -15 9 -15 4 0 8 9 7 20 0 11 4 19 9 19 6 0 9 -11 8 -24 -1 -14 2 -25 7 -25
14 0 21 18 10 25 -6 4 -8 10 -5 15 7 12 45 -11 45 -26 0 -7 -13 -17 -30 -23
-16 -5 -30 -17 -30 -26 0 -13 9 -11 48 11 79 46 77 43 77 112 0 34 -2 62 -5
62 -3 0 -18 -11 -35 -25z m16 -69 c-7 -9 -7 -16 1 -24 23 -23 -15 -13 -54 14
-42 29 -48 39 -20 32 12 -3 24 2 31 14 6 10 16 16 21 13 5 -3 12 0 17 7 5 9 9
4 11 -15 2 -16 -1 -34 -7 -41z"/>
<path d="M3363 5350 c-18 -11 -33 -22 -33 -25 0 -2 16 5 35 16 19 12 35 23 35
25 0 6 -3 5 -37 -16z"/>
<path d="M3415 5350 c-3 -6 1 -7 9 -4 18 7 21 14 7 14 -6 0 -13 -4 -16 -10z"/>
<path d="M2719 5334 c9 -19 3 -25 -67 -66 -42 -25 -104 -60 -137 -78 -33 -18
-62 -36 -65 -40 -5 -7 -36 -20 -46 -19 -4 0 -10 -3 -13 -8 -9 -12 -89 -63 -99
-63 -5 0 -26 -13 -48 -30 -21 -16 -47 -30 -56 -30 -10 0 -18 -4 -18 -8 0 -5
-12 -14 -26 -20 -27 -13 -58 -3 -67 20 -4 9 -6 9 -6 1 -1 -6 11 -21 25 -32
l26 -20 36 23 c41 26 198 118 439 257 90 52 163 98 163 102 0 5 -6 7 -12 4 -7
-2 -19 3 -26 12 -11 14 -12 13 -3 -5z"/>
<path d="M3284 5307 c-11 -12 -12 -17 -4 -11 8 6 22 13 30 16 9 3 10 7 3 11
-6 4 -19 -3 -29 -16z"/>
<path d="M3359 5313 c-12 -16 -12 -17 1 -7 8 6 22 14 30 17 13 5 12 6 -1 6 -9
1 -23 -7 -30 -16z"/>
<path d="M3288 5274 c-27 -13 -48 -27 -48 -29 0 -3 23 6 50 20 28 14 50 28 50
30 0 7 1 7 -52 -21z"/>
<path d="M4451 5213 c0 -51 3 -93 7 -93 4 0 6 33 4 73 -5 113 -9 121 -11 20z"/>
<path d="M3191 5255 c-19 -13 -37 -22 -41 -20 -4 2 -7 -2 -7 -10 0 -8 5 -11
11 -7 6 4 28 18 49 31 20 12 37 25 37 27 0 9 -17 2 -49 -21z"/>
<path d="M2970 5225 c0 -2 10 -10 23 -16 20 -11 21 -11 8 4 -13 16 -31 23 -31
12z"/>
<path d="M2890 5207 c0 -9 -6 -17 -12 -17 -8 0 -9 -3 -3 -8 16 -11 18 -51 4
-83 -6 -16 -14 -27 -17 -25 -2 3 -17 -3 -33 -14 -20 -15 -29 -17 -32 -8 -3 7
-6 3 -6 -9 -1 -13 2 -23 5 -23 3 0 30 15 61 33 l54 32 -4 62 c-2 35 -7 66 -10
70 -4 3 -7 -1 -7 -10z"/>
<path d="M3169 5203 c-12 -16 -12 -17 1 -7 8 6 22 14 30 17 13 5 12 6 -1 6 -9
1 -23 -7 -30 -16z"/>
<path d="M4418 5175 c-3 -14 -1 -25 3 -25 5 0 9 11 9 25 0 14 -2 25 -4 25 -2
0 -6 -11 -8 -25z"/>
<path d="M2830 5174 c-14 -7 -29 -15 -35 -18 -6 -2 -5 -9 3 -17 10 -11 12 -10
12 4 0 11 8 17 23 17 14 0 24 6 24 15 0 8 -1 15 -1 14 -1 -1 -12 -7 -26 -15z"/>
<path d="M3107 5170 c-16 -10 -25 -20 -20 -23 4 -2 35 -19 68 -37 33 -18 76
-42 95 -53 22 -13 30 -14 20 -5 -8 9 -43 30 -77 48 -37 19 -60 36 -56 43 4 6
0 8 -10 4 -9 -3 -19 -2 -22 3 -4 6 -2 10 2 10 5 0 18 7 29 15 27 20 5 17 -29
-5z"/>
<path d="M1841 5154 c0 -11 3 -14 6 -6 3 7 2 16 -1 19 -3 4 -6 -2 -5 -13z"/>
<path d="M3772 5145 c0 -16 2 -22 5 -12 2 9 2 23 0 30 -3 6 -5 -1 -5 -18z"/>
<path d="M3039 5136 c-37 -20 -144 -81 -399 -230 l-235 -138 3 -806 c2 -786 2
-808 -18 -886 -27 -102 -64 -178 -115 -231 -102 -107 -251 -124 -340 -38 -43
42 -62 77 -84 159 l-18 62 51 24 c27 12 54 22 58 20 13 -4 -8 32 -28 49 -16
13 -16 12 -6 -8 7 -12 12 -24 12 -26 0 -3 -26 -17 -57 -33 -32 -16 -96 -52
-143 -80 -85 -51 -208 -123 -265 -153 -65 -35 -181 -105 -197 -119 -17 -14
-18 20 -18 697 0 657 1 711 16 703 14 -8 16 -25 15 -102 l-2 -93 23 16 c13 9
40 26 62 38 21 11 40 29 43 39 4 16 8 17 24 7 11 -7 14 -14 8 -18 -7 -4 -4 -9
6 -12 11 -5 14 -3 9 5 -11 17 16 5 114 -53 48 -29 116 -68 152 -87 53 -29 245
-141 310 -182 8 -5 48 -28 88 -51 69 -41 72 -44 72 -81 0 -43 -10 -47 -51 -17
-16 11 -29 18 -29 15 0 -3 20 -19 45 -36 l45 -31 0 63 -1 63 -69 35 c-124 62
-122 55 -37 138 41 40 81 72 88 72 8 0 -14 -26 -49 -56 -34 -31 -68 -66 -74
-78 -6 -11 13 2 42 31 29 29 57 50 62 47 5 -3 7 0 6 7 -2 6 2 13 7 15 6 3 10
-32 9 -91 0 -53 3 -98 7 -101 5 -3 9 180 9 406 l0 411 -22 -12 c-149 -78 -330
-263 -476 -485 -21 -33 -21 -34 -2 -22 11 7 20 17 20 22 0 20 46 76 58 71 7
-3 10 0 7 6 -7 10 12 44 40 73 9 9 13 16 10 16 -4 0 15 23 43 50 28 28 48 50
46 50 -3 0 16 19 41 43 26 23 49 41 52 39 2 -2 13 6 22 17 10 12 23 21 30 21
6 0 11 5 11 11 0 6 7 9 14 6 10 -4 13 -1 9 9 -3 8 1 14 8 14 7 0 23 10 36 22
22 20 23 21 24 2 1 -15 3 -14 9 6 5 14 8 -96 8 -253 l0 -277 -28 -20 c-15 -11
-29 -18 -31 -17 -2 1 -3 0 -2 -2 5 -8 -28 -32 -36 -26 -5 3 -13 0 -17 -6 -4
-8 -3 -9 4 -5 7 4 12 2 12 -4 0 -7 -8 -14 -18 -17 -10 -2 -26 -18 -36 -34 -9
-16 -20 -29 -25 -29 -4 0 -40 21 -81 46 -41 26 -97 59 -125 74 -27 15 -90 51
-140 80 -49 29 -109 64 -132 77 -24 14 -43 27 -43 29 0 3 10 9 23 14 12 6 29
14 37 20 98 63 184 109 192 104 7 -4 8 -2 4 4 -6 11 12 17 37 13 4 -1 10 6 13
14 4 8 10 15 16 15 5 0 25 12 44 26 38 29 43 28 17 -4 -26 -30 -61 -73 -84
-105 -11 -15 -25 -24 -31 -21 -7 4 -8 2 -4 -4 9 -15 -23 -64 -37 -55 -6 3 -7
1 -3 -5 4 -7 2 -12 -5 -12 -7 0 -9 -3 -6 -6 4 -4 -2 -19 -12 -33 -29 -42 -33
-51 -22 -51 6 0 11 4 11 10 0 26 135 197 234 295 61 61 111 114 111 118 0 9
18 20 219 135 80 45 148 87 152 93 4 7 2 9 -7 5 -8 -3 -22 -9 -31 -12 -10 -4
-18 -11 -18 -16 0 -5 -4 -7 -9 -4 -5 4 -23 -5 -39 -19 -16 -14 -35 -25 -40
-25 -6 0 -27 -10 -46 -22 -73 -48 -119 -73 -127 -71 -5 2 -9 -1 -9 -6 0 -5
-20 -19 -44 -31 -25 -12 -56 -30 -69 -41 -14 -10 -46 -28 -71 -39 -25 -10 -46
-23 -46 -28 0 -4 -16 -14 -35 -22 -19 -8 -35 -18 -35 -23 0 -5 -6 -7 -14 -4
-8 3 -20 -1 -27 -10 -7 -8 -22 -19 -34 -24 -28 -12 -59 -32 -66 -43 -4 -5 -12
-5 -19 -1 -9 5 -11 4 -6 -3 6 -11 -13 -17 -37 -13 -5 1 -6 -3 -2 -9 6 -9 -41
-35 -57 -32 -5 1 -8 -2 -8 -8 0 -5 -5 -10 -11 -10 -5 0 -7 5 -3 12 5 7 3 8 -5
4 -7 -5 -10 -11 -7 -14 3 -3 1 -11 -5 -19 -18 -21 -4 -15 73 30 134 81 423
246 440 252 10 4 15 11 12 16 -3 5 2 6 10 3 9 -3 16 -8 16 -9 0 -4 -128 -85
-134 -85 -2 0 -48 -26 -103 -58 -54 -32 -118 -70 -143 -84 -25 -14 -73 -42
-107 -62 -86 -50 -99 -42 -95 59 3 72 4 74 40 99 20 13 44 26 52 28 14 3 21 7
55 37 9 7 27 14 40 15 13 0 21 4 19 8 -6 10 66 49 78 42 7 -5 8 -2 3 6 -6 10
-4 12 9 7 10 -4 15 -3 11 3 -3 5 4 14 15 20 11 6 20 8 20 5 0 -3 12 6 27 20
15 14 31 25 36 25 4 0 25 11 46 24 21 14 41 23 43 20 3 -2 11 2 18 11 7 8 18
15 25 15 8 0 15 4 17 8 2 5 62 42 133 82 72 40 138 80 147 88 9 8 22 11 29 6
7 -4 10 -3 6 3 -8 12 20 27 42 24 7 -1 11 2 8 6 -3 5 8 17 24 27 17 10 28 20
25 23 -2 3 -87 -44 -188 -103 -101 -59 -250 -147 -333 -194 -82 -48 -248 -144
-368 -213 -119 -70 -224 -127 -232 -127 -26 0 -25 17 2 29 21 10 404 231 863
499 25 15 61 36 81 47 20 11 155 89 301 174 246 142 264 155 260 178 l-5 24
-11 -23 c-7 -13 -19 -22 -28 -22 -9 1 -14 -4 -12 -10 2 -6 -16 -20 -41 -31
-25 -11 -45 -23 -45 -26 0 -3 -30 -21 -67 -40 -38 -19 -73 -40 -78 -47 -6 -7
-18 -14 -27 -15 -9 -2 -23 -9 -32 -16 -9 -7 -16 -10 -16 -7 0 4 -13 -2 -29
-13 -16 -12 -34 -21 -40 -21 -6 0 -11 -5 -11 -11 0 -5 -4 -7 -10 -4 -5 3 -10
2 -10 -4 0 -5 -18 -17 -40 -27 -22 -10 -36 -22 -33 -28 3 -6 0 -5 -8 2 -19 18
-28 15 -39 -14 -6 -14 -14 -22 -20 -19 -5 3 -16 2 -24 -2 -14 -7 -16 -12 -16
-30 0 -4 -7 2 -15 13 -11 14 -14 15 -9 3 5 -17 -32 -53 -46 -44 -3 2 -19 -7
-35 -21 -15 -13 -32 -24 -36 -24 -4 0 -27 -13 -51 -29 -24 -16 -63 -39 -88
-52 -25 -12 -52 -28 -60 -35 -8 -7 -19 -14 -25 -15 -5 -1 -26 -12 -45 -23 -33
-20 -50 -26 -77 -28 -8 -1 -9 -5 -3 -13 6 -7 2 -11 -13 -12 -12 -1 -27 -10
-34 -19 -7 -9 -17 -13 -24 -8 -7 4 -10 3 -6 -3 4 -6 -7 -16 -23 -23 -17 -7
-30 -17 -30 -23 0 -6 -3 -8 -6 -4 -3 3 -30 -10 -59 -29 -30 -19 -59 -34 -65
-34 -5 0 -10 -4 -10 -9 0 -5 -8 -7 -19 -4 -10 3 -22 -1 -26 -8 -5 -8 -4 -10 3
-5 7 4 12 5 12 2 0 -3 -15 -12 -32 -21 -18 -8 -46 -26 -62 -38 l-29 -24 -1
-141 c-1 -78 -3 -142 -6 -142 -3 0 -3 -39 -1 -87 2 -49 3 -103 3 -120 0 -18 0
-61 0 -95 0 -177 0 -356 -1 -378 -3 -96 -4 -157 -3 -170 1 -8 4 -60 7 -115 8
-176 14 -221 35 -306 23 -88 56 -160 102 -220 15 -20 28 -42 28 -49 0 -6 4 -9
9 -6 14 9 24 -25 22 -71 -3 -48 3 -51 39 -23 28 22 40 25 40 10 0 -5 -18 -19
-40 -30 l-40 -20 0 -80 c0 -47 -4 -80 -10 -80 -6 0 -10 30 -10 70 0 39 -3 70
-8 70 -4 0 -29 -15 -57 -33 -41 -28 -52 -32 -72 -23 -21 10 -24 17 -21 54 2
23 1 42 -1 42 -2 0 -28 -16 -57 -35 -29 -19 -57 -35 -63 -35 -14 0 -14 -27 -1
-35 5 -3 7 0 5 7 -4 9 11 22 40 36 25 12 47 22 49 22 12 0 11 -53 -1 -66 -22
-21 -89 -54 -97 -47 -3 4 -6 -1 -6 -10 0 -20 14 -22 32 -4 7 7 34 24 59 39 66
36 74 27 70 -71 -1 -45 0 -81 3 -81 4 0 36 18 71 40 57 34 96 43 95 21 -1 -3
-33 -22 -71 -41 -39 -19 -73 -38 -75 -42 -2 -3 22 -22 53 -40 223 -132 213
-127 213 -109 0 5 -9 13 -20 16 -11 4 -18 11 -15 16 4 5 0 9 -7 9 -24 1 -88
36 -81 45 5 4 3 5 -3 2 -7 -4 -17 0 -24 8 -7 8 -18 15 -25 15 -7 0 -23 9 -36
20 -19 15 -21 19 -7 20 9 0 18 4 20 9 2 5 23 22 47 38 l45 31 50 -31 c109 -64
102 -58 81 -73 -24 -18 -35 -18 -35 1 0 13 -2 14 -14 3 -12 -11 -11 -15 7 -25
18 -9 27 -8 49 8 27 19 27 19 64 -6 20 -14 33 -26 28 -26 -39 -6 -61 -3 -61 8
0 6 4 10 9 7 4 -3 8 0 8 5 0 15 -21 13 -43 -4 -18 -13 -17 -15 13 -30 31 -16
35 -16 69 2 20 10 38 21 41 24 3 3 40 26 83 51 77 45 77 46 46 52 -17 3 -40 6
-50 6 -22 0 -132 -60 -125 -67 3 -3 13 -2 23 2 10 5 24 7 32 6 7 -1 10 2 7 7
-8 13 39 36 55 27 7 -5 10 -4 6 1 -3 5 3 10 14 10 31 0 22 -13 -21 -32 -22
-10 -40 -22 -40 -27 0 -4 -4 -6 -9 -2 -6 3 -14 -2 -19 -10 -8 -15 -12 -15 -45
2 -20 10 -37 20 -37 23 0 3 43 29 95 58 52 29 95 55 95 57 0 3 -11 4 -25 3
-14 -1 -25 -5 -25 -9 0 -3 -21 -17 -47 -30 -27 -13 -53 -30 -59 -38 -6 -8 -16
-11 -21 -8 -6 4 -13 -2 -16 -13 -5 -18 -11 -16 -81 26 -42 25 -76 51 -76 57 0
5 3 8 6 4 4 -3 13 0 21 8 17 18 37 20 27 3 -4 -7 -3 -8 5 -4 6 4 9 11 6 16 -3
5 7 13 22 16 15 4 45 21 65 37 22 17 41 26 49 22 7 -5 10 -4 5 3 -3 6 3 13 14
17 11 3 20 11 20 16 0 5 8 9 18 10 10 0 12 3 5 6 -7 2 -72 -29 -144 -71 -71
-42 -136 -76 -143 -76 -37 0 -14 19 95 83 66 38 118 71 116 74 -4 4 -117 -46
-127 -57 -18 -19 -62 -40 -72 -34 -6 4 -8 3 -5 -2 3 -6 -3 -16 -14 -22 -19
-12 -20 -10 -17 60 2 53 7 72 16 70 7 -1 15 5 18 13 4 8 12 15 19 15 7 0 15 5
17 11 2 7 34 0 91 -20 61 -21 98 -29 124 -25 l38 5 34 -67 c19 -37 47 -80 63
-97 27 -30 31 -50 6 -29 -9 7 -20 6 -38 -3 -24 -14 -24 -14 20 -15 96 -3 92
-11 -49 -94 -72 -43 -131 -79 -131 -81 0 -2 88 -54 310 -183 52 -30 134 -79
182 -108 87 -52 88 -52 110 -34 13 11 18 19 12 20 -5 0 -15 -5 -21 -11 -8 -8
-19 -6 -42 7 -16 10 -28 21 -25 26 3 4 -1 5 -9 2 -8 -3 -21 1 -28 8 -8 8 -29
20 -48 28 -18 7 -41 22 -51 32 -10 11 -25 21 -35 22 -9 1 -21 9 -26 17 -5 8
-9 10 -9 5 0 -5 -8 -2 -17 6 -10 8 -54 34 -98 57 -44 23 -84 49 -88 57 -5 8
-12 12 -18 9 -5 -4 -9 -1 -9 4 0 6 -9 11 -20 11 -11 0 -20 5 -20 10 0 6 -8 10
-17 10 -13 0 -10 6 12 20 16 10 32 16 35 11 3 -5 32 -23 65 -41 33 -19 73 -43
90 -54 16 -12 46 -29 65 -40 40 -21 105 -57 140 -77 13 -8 45 -27 70 -44 25
-16 67 -41 93 -55 26 -13 47 -28 47 -31 0 -4 -13 -12 -30 -19 l-30 -12 126
-75 c69 -41 128 -72 131 -69 3 3 3 12 -1 21 -4 11 -12 14 -26 10 -13 -4 -22
-1 -26 9 -3 9 -11 16 -18 16 -6 0 -27 10 -46 22 -19 12 -39 22 -45 23 -5 0 -9
7 -7 14 1 7 -3 11 -10 9 -7 -3 -19 2 -26 11 -8 10 -11 10 -6 2 5 -10 3 -12 -6
-6 -10 6 -9 11 5 22 11 7 23 13 28 13 5 0 50 -24 101 -54 50 -29 114 -67 142
-82 29 -16 96 -55 150 -88 55 -32 154 -91 221 -130 105 -61 122 -74 120 -94
-3 -24 -9 -25 -44 -9 -12 5 -20 14 -17 19 3 5 1 7 -3 6 -13 -4 -153 73 -153
84 0 4 -6 8 -14 8 -8 0 -22 7 -31 16 -9 9 -19 14 -22 11 -3 -3 -11 -1 -19 6
-31 28 -43 36 -85 56 -55 25 -80 42 -95 60 -6 8 -16 11 -23 7 -7 -4 -14 2 -19
15 -7 19 -10 20 -15 6 -5 -13 17 -29 96 -73 56 -31 118 -67 137 -79 19 -12 85
-51 145 -86 61 -34 122 -71 137 -81 l27 -19 125 72 c111 64 145 89 118 89 -5
0 -16 6 -26 13 -16 12 -4 21 114 91 72 43 130 80 127 82 -7 7 -105 -42 -182
-92 -38 -25 -77 -48 -85 -51 -8 -4 -52 -29 -97 -55 -44 -26 -86 -48 -91 -48
-6 0 -56 27 -111 60 -56 33 -104 60 -107 60 -2 0 -28 16 -57 36 -29 20 -42 33
-30 29 39 -11 67 -16 118 -20 28 -3 75 -8 105 -12 30 -3 61 -5 67 -4 9 1 12
-15 10 -59 -2 -33 1 -66 5 -73 4 -7 8 25 8 70 0 69 -2 81 -15 77 -30 -12 -312
27 -365 50 -14 6 -96 53 -182 105 -178 105 -173 93 -65 155 26 15 47 29 47 32
0 7 -109 -53 -131 -72 -21 -19 -43 -18 -35 2 3 8 2 12 -3 9 -6 -3 -27 2 -49
10 -44 18 -65 53 -87 147 -8 29 -14 44 -14 32 -1 -19 17 -86 34 -127 5 -12
-34 7 -108 53 -64 38 -118 70 -121 70 -2 0 -33 18 -67 40 -35 21 -83 49 -107
62 -57 29 -60 36 -23 49 17 6 31 15 31 20 0 5 3 8 8 7 12 -3 82 35 82 44 0 5
5 6 12 2 7 -4 8 -3 4 4 -4 7 -2 12 4 12 13 0 106 -51 175 -95 64 -42 195 -118
293 -173 42 -23 82 -49 89 -58 6 -8 15 -16 20 -17 4 -1 7 -4 6 -7 -1 -3 7 -7
18 -7 23 -2 164 -76 194 -102 31 -27 73 -51 89 -51 8 0 16 -3 18 -8 5 -11 129
-89 161 -101 15 -6 30 -18 34 -27 4 -11 8 -12 13 -4 8 12 70 5 70 -8 0 -4 26
-6 57 -5 38 1 52 -1 43 -7 -8 -6 -30 -7 -49 -3 -26 4 -32 3 -26 -7 5 -8 23
-10 64 -5 89 11 232 42 275 60 21 9 45 14 53 11 8 -3 71 26 139 64 69 39 127
70 129 70 1 0 3 -12 3 -26 0 -18 -7 -28 -19 -31 -11 -3 -19 -9 -19 -13 0 -12
-101 -60 -112 -53 -6 3 -8 1 -4 -5 7 -12 -4 -21 -35 -27 -12 -3 -30 -14 -41
-25 -10 -11 -25 -20 -33 -20 -7 0 -27 -11 -43 -25 -17 -14 -37 -25 -45 -25 -8
0 -17 -4 -19 -9 -1 -4 -21 -19 -44 -33 -31 -20 -44 -24 -60 -16 -18 10 -18 9
-2 -7 18 -20 13 -23 263 125 72 42 155 90 185 107 30 17 107 62 170 100 63 37
199 118 302 178 103 60 186 111 183 113 -5 5 -126 -61 -167 -91 -14 -11 -31
-16 -37 -13 -6 4 -14 0 -17 -8 -3 -9 -12 -16 -20 -16 -8 0 -14 -5 -14 -11 0
-5 -5 -7 -12 -3 -6 4 -8 3 -5 -3 8 -13 -41 -36 -55 -27 -6 4 -8 3 -5 -3 3 -5
-12 -20 -33 -32 -22 -12 -40 -19 -40 -14 0 4 -4 3 -8 -2 -10 -15 -115 -85
-127 -85 -6 0 -21 -9 -35 -20 -34 -26 -40 -25 -40 8 1 21 10 33 48 56 35 21
535 315 585 343 4 2 6 -19 5 -47 l-2 -51 -116 -66 c-63 -36 -128 -74 -145 -83
-16 -9 -109 -63 -205 -120 -96 -57 -247 -144 -335 -195 -257 -149 -300 -175
-286 -175 8 0 36 14 62 31 27 17 54 27 60 23 7 -4 9 -3 6 3 -8 14 59 47 75 37
6 -4 8 -3 4 4 -7 12 23 34 104 77 30 16 71 40 90 53 l35 24 3 -22 c5 -28 -5
-53 -17 -45 -6 3 -13 -1 -18 -8 -7 -12 -72 -47 -88 -47 -4 0 -25 -16 -47 -35
-23 -19 -44 -32 -48 -30 -4 3 -13 -2 -20 -9 -6 -8 -28 -23 -48 -34 -20 -11
-55 -29 -77 -42 -38 -21 -41 -22 -71 -5 -31 17 -33 16 -80 -11 -82 -46 -194
-116 -194 -120 0 -5 103 48 110 56 3 4 15 6 27 5 11 -1 19 3 17 9 -5 14 75 61
96 57 8 -1 21 -8 29 -16 11 -11 5 -17 -39 -39 -28 -14 -57 -23 -62 -19 -7 3
-8 1 -4 -5 4 -7 1 -12 -8 -12 -9 0 -16 -4 -16 -8 0 -5 -24 -22 -52 -37 -29
-16 -56 -33 -59 -38 -4 -5 -12 -6 -19 -2 -8 5 -11 4 -7 -2 4 -6 0 -13 -8 -17
-12 -4 -15 3 -15 29 0 34 -13 54 -25 35 -3 -5 -2 -10 3 -10 5 0 7 -11 4 -25
-5 -31 -16 -32 -36 -3 -9 12 -16 19 -16 15 0 -4 -17 4 -37 18 -21 14 -44 25
-51 25 -7 0 -11 4 -8 9 3 5 -2 8 -12 7 -9 0 -16 4 -15 11 2 7 -4 10 -12 7 -8
-4 -15 -1 -15 7 0 7 -3 9 -7 6 -3 -4 -13 -1 -22 7 -9 8 -18 14 -21 13 -9 -2
-87 48 -89 57 0 5 -13 11 -28 12 -15 2 -29 8 -31 14 -2 5 -11 10 -20 10 -15 0
-15 2 -2 11 12 9 10 10 -8 6 -15 -4 -25 0 -29 9 -3 8 -8 12 -12 10 -3 -2 -25
9 -49 25 -23 16 -47 29 -53 29 -6 0 -7 4 -4 10 3 5 -6 12 -21 16 -41 11 -124
65 -117 77 4 6 0 8 -9 5 -8 -4 -31 3 -49 15 -37 23 -65 39 -104 60 -14 8 -22
17 -18 21 4 4 -1 4 -11 0 -15 -6 -17 -4 -11 6 5 9 4 11 -4 6 -6 -4 -18 0 -27
8 -8 9 -22 16 -30 16 -9 0 -12 5 -8 12 4 6 3 9 -2 5 -11 -6 -86 37 -84 48 1 4
-2 10 -6 13 -4 4 -4 1 0 -5 11 -20 -4 -15 -40 12 -18 14 -40 25 -49 25 -9 0
-13 5 -10 10 4 6 3 10 -2 9 -17 -3 -53 14 -53 24 0 6 -3 7 -7 4 -3 -4 -11 1
-18 10 -7 9 -18 18 -26 19 -32 6 -86 41 -84 55 2 8 -5 15 -15 15 -10 0 -16 -5
-14 -11 3 -5 -1 -2 -9 8 -8 9 -19 17 -26 17 -6 0 -11 5 -11 11 0 6 -7 8 -16 5
-8 -3 -12 -2 -9 3 3 5 1 12 -4 15 -5 3 -11 0 -14 -8 -4 -10 23 -31 86 -66 51
-29 108 -63 127 -75 19 -12 67 -40 105 -62 39 -22 131 -76 205 -120 74 -44
191 -112 260 -153 69 -40 162 -95 207 -122 44 -26 92 -54 105 -61 21 -11 84
-48 312 -184 75 -45 91 -51 109 -41 11 6 61 35 110 64 49 30 91 54 92 54 2 0
88 50 192 111 279 166 304 180 314 173 5 -3 9 1 9 8 1 7 33 31 73 54 40 22
140 80 222 129 298 175 336 196 345 190 6 -3 10 0 10 8 0 7 12 20 28 28 15 8
65 37 112 65 47 28 105 62 129 75 24 13 51 29 60 34 9 6 62 37 119 69 l102 58
-74 44 c-80 47 -86 49 -86 35 0 -5 10 -13 23 -17 12 -4 32 -16 44 -28 12 -12
27 -22 32 -22 21 -3 22 -4 9 -17 -27 -27 -88 -58 -99 -51 -8 4 -9 3 -5 -5 5
-7 -5 -17 -26 -25 -18 -8 -52 -28 -75 -45 -24 -17 -50 -31 -58 -31 -8 0 -15
-4 -15 -10 0 -5 -6 -10 -14 -10 -8 0 -21 -6 -28 -14 -8 -7 -32 -23 -54 -35
-21 -12 -58 -33 -81 -47 l-43 -25 0 71 c0 64 6 81 23 63 4 -3 2 -12 -5 -20
-10 -12 -7 -12 16 -2 26 12 26 14 10 26 -10 7 -24 13 -31 13 -7 0 -13 4 -13 8
0 7 125 86 220 140 19 11 71 41 115 67 l80 47 40 -21 c22 -12 64 -37 93 -55
l54 -33 -124 -73 c-157 -93 -325 -192 -408 -240 -95 -55 -216 -126 -385 -226
-82 -49 -159 -93 -170 -99 -11 -6 -157 -92 -325 -190 -168 -98 -348 -203 -400
-233 -52 -30 -112 -66 -132 -78 -21 -13 -40 -24 -42 -24 -4 0 -150 85 -926
540 -228 133 -467 273 -531 310 -64 37 -173 101 -242 141 l-126 74 -1 93 0 93
-27 -19 c-16 -10 -35 -22 -43 -25 -8 -4 -51 -26 -95 -50 l-80 -43 -3 -139 c-1
-76 0 -136 3 -133 4 3 7 61 8 129 2 68 6 129 10 136 11 17 66 43 92 43 13 0
26 7 29 16 3 8 10 12 16 9 5 -3 10 -2 10 4 0 5 10 13 23 17 12 4 25 12 29 18
5 7 8 5 8 -6 0 -9 -6 -19 -12 -21 -10 -4 -10 -6 0 -6 8 -1 12 -19 12 -54 0
-42 5 -60 23 -80 12 -15 28 -27 35 -27 7 0 11 -4 8 -9 -4 -5 8 -12 25 -16 17
-4 33 -13 36 -21 3 -8 11 -14 18 -14 7 0 25 -6 39 -14 31 -16 28 -19 -61 -66
-35 -18 -60 -36 -58 -41 3 -4 38 -26 78 -49 39 -22 106 -62 147 -87 41 -25
134 -79 205 -121 72 -41 142 -82 157 -91 15 -9 78 -45 140 -80 62 -36 151 -88
198 -116 47 -29 141 -85 210 -125 69 -40 188 -110 265 -155 77 -45 194 -114
259 -152 l119 -69 81 48 c45 26 86 48 91 48 10 0 -37 31 -107 70 -21 11 -38
25 -38 30 0 15 12 12 45 -11 17 -11 44 -27 60 -35 28 -14 29 -14 10 1 -11 9
-19 20 -18 25 2 5 -5 6 -14 3 -11 -4 -14 -3 -9 5 5 8 1 10 -10 5 -13 -5 -15
-3 -9 7 5 8 4 11 -3 6 -6 -3 -13 -2 -16 3 -4 5 4 13 16 17 13 4 37 17 54 30
17 13 34 22 37 19 4 -3 5 -2 2 1 -2 4 15 16 38 27 23 12 45 25 48 29 3 5 15
10 27 11 11 0 19 4 17 8 -3 3 7 11 20 17 14 7 25 16 25 22 0 6 5 8 11 5 6 -4
17 1 24 11 8 11 15 14 15 7 0 -7 12 -1 27 13 15 14 33 22 40 20 7 -3 13 -1 13
3 0 17 70 53 91 48 17 -5 18 -3 8 9 -7 8 -8 14 -3 12 5 -1 28 10 52 25 23 15
47 25 52 22 6 -4 10 1 10 9 0 22 20 20 21 -1 0 -10 5 -3 11 16 6 21 12 30 17
23 5 -8 12 -5 25 9 11 14 26 19 40 17 14 -3 23 0 23 8 0 7 -5 11 -11 8 -6 -3
-3 1 7 10 11 8 25 12 33 9 8 -3 14 0 14 6 0 6 5 11 10 11 6 0 16 5 23 10 48
40 61 50 72 50 6 0 33 14 61 32 27 17 55 33 63 34 8 2 18 10 23 19 5 8 14 12
20 9 6 -4 13 -3 17 2 10 15 101 76 101 68 0 -3 15 5 33 18 54 41 65 41 70 5 3
-27 4 -26 5 10 1 23 6 44 12 48 5 3 10 -30 12 -85 l3 -90 275 160 c151 88 276
164 278 168 2 8 -30 29 -105 69 -18 9 -33 20 -33 23 0 4 34 22 74 40 41 19 73
37 70 42 -3 4 2 8 10 8 9 0 16 4 16 10 0 5 3 9 8 9 18 -3 20 3 11 31 -6 17
-18 30 -26 30 -8 0 -12 4 -9 8 3 5 -13 16 -34 26 -22 10 -40 22 -40 27 0 5 -3
8 -7 8 -5 -1 -13 -1 -20 0 -15 1 -5 31 11 31 6 0 22 9 36 20 29 22 44 26 35 8
-3 -7 2 -3 11 9 9 13 23 23 30 23 8 0 14 4 14 8 0 14 79 54 92 46 7 -4 8 -3 4
4 -4 6 4 16 16 23 34 17 118 72 118 76 0 5 -32 -12 -165 -92 -142 -85 -249
-145 -259 -145 -18 0 12 24 81 64 l75 44 -98 57 c-326 190 -475 278 -480 286
-15 24 15 8 311 -166 302 -178 285 -170 309 -155 30 19 133 79 186 107 82 45
99 57 105 71 4 12 3 13 -9 3 -8 -7 -20 -10 -25 -6 -7 4 -8 -1 -4 -11 4 -12 3
-15 -5 -10 -7 4 -12 2 -12 -5 0 -7 -3 -9 -6 -6 -4 3 -16 1 -28 -5 -11 -7 -25
-11 -31 -9 -5 1 -7 -1 -3 -5 11 -11 -60 -56 -75 -48 -6 4 -9 3 -4 -1 7 -9 -68
-57 -90 -58 -7 0 -10 -4 -7 -9 8 -12 -3 -10 -36 7 -17 9 -30 19 -30 24 0 4
-18 14 -40 21 -22 7 -40 17 -40 22 0 4 -7 8 -15 8 -8 0 -15 7 -15 15 0 9 -6
12 -17 8 -11 -4 -14 -3 -9 5 5 8 1 10 -10 5 -12 -4 -15 -3 -10 6 4 6 4 11 -1
10 -13 -3 -47 14 -60 30 -7 9 -13 12 -13 8 0 -5 -14 0 -32 10 -65 37 -97 61
-90 68 4 5 2 5 -4 2 -6 -4 -47 14 -90 38 l-78 45 1 147 c5 407 4 864 -2 873
-3 5 -1 10 5 10 6 0 8 4 5 10 -8 13 -10 704 -2 717 4 6 -4 18 -17 27 -24 15
-33 11 -338 -165 -172 -100 -318 -183 -325 -186 -7 -3 -39 12 -73 33 l-60 37
55 33 c31 19 60 34 65 34 5 0 6 -24 3 -54 -4 -36 -2 -56 6 -61 9 -5 12 10 10
59 l-2 67 106 64 c58 35 170 100 247 145 l141 82 59 -36 c33 -19 66 -33 73
-30 9 3 12 23 9 72 -5 75 -7 81 -25 62 -9 -10 -9 -11 1 -6 9 5 12 -6 12 -43 0
-28 -3 -51 -7 -51 -18 1 -82 47 -76 54 4 4 -5 2 -20 -3 -20 -8 -34 -8 -48 -1
-10 6 -19 7 -19 2 0 -5 -28 -24 -62 -42 -35 -18 -71 -39 -80 -47 -9 -8 -22
-12 -29 -7 -8 4 -10 3 -5 -4 6 -11 -12 -16 -31 -9 -9 3 -15 57 -5 57 4 0 7 16
7 35 0 19 -3 35 -7 35 -5 0 -8 25 -8 55 0 47 2 54 18 48 9 -3 1 6 -18 19 -19
14 -46 29 -60 33 -14 4 -31 13 -39 19 -12 9 -12 8 -1 -11 8 -12 19 -19 25 -15
5 3 4 -2 -4 -12 -8 -9 -20 -15 -28 -12 -9 4 -11 1 -7 -6 5 -8 2 -9 -10 -5 -10
4 -15 3 -11 -3 3 -6 -1 -10 -10 -10 -11 0 -15 -5 -12 -14 4 -11 1 -13 -10 -9
-10 4 -14 2 -9 -5 4 -7 -2 -8 -24 -2 -16 5 -29 5 -29 2 1 -4 1 -16 0 -27 -2
-20 -2 -20 -16 -1 -8 11 -16 17 -16 13 -1 -4 -2 -13 -3 -19 -1 -7 -7 -12 -14
-11 -7 2 -12 -1 -12 -5 0 -5 -18 -17 -40 -27 -22 -10 -40 -21 -40 -25 0 -5
-64 -40 -73 -40 -11 0 -15 415 -5 425 4 4 23 -2 43 -13 19 -12 35 -18 35 -14
0 4 -25 21 -54 39 -45 25 -56 28 -60 16 -3 -8 -6 -124 -6 -258 l0 -244 -67
-37 c-38 -20 -85 -47 -105 -60 l-37 -24 2 -169 c2 -166 1 -170 -20 -180 -33
-15 -387 -221 -397 -232 -36 -35 90 35 367 202 27 16 49 29 50 29 1 0 1 -37 0
-81 l-2 -82 -103 -59 c-240 -139 -309 -181 -314 -190 -4 -6 4 -4 17 3 26 13
301 172 362 209 l37 22 0 -571 c0 -607 -2 -630 -50 -736 -30 -67 -33 -70 -107
-110 l-52 -27 -30 22 -31 22 -78 -45 c-57 -34 -80 -42 -90 -34 -25 20 -60 93
-74 151 -12 55 -17 61 -62 89 l-48 30 28 15 c16 8 62 34 101 58 40 24 77 44
82 44 5 0 11 4 13 8 2 4 32 24 68 44 121 67 295 169 305 180 23 24 -114 -52
-463 -259 -85 -51 -149 -82 -159 -79 -11 5 -2 15 34 39 62 43 115 121 149 222
l28 80 4 561 3 562 172 98 c195 111 250 145 242 152 -2 3 -10 0 -17 -5 -7 -6
-99 -60 -205 -121 l-192 -110 -3 251 c-3 214 -1 254 12 264 13 10 132 80 528
310 50 30 92 60 92 66 0 7 -28 27 -62 45 -37 19 -52 24 -38 13 14 -11 30 -21
36 -21 20 0 10 -45 -11 -51 -11 -3 -19 -13 -19 -21 1 -13 -3 -15 -23 -7 -16 6
-22 5 -18 -1 3 -6 2 -10 -3 -10 -4 0 -17 -8 -28 -17 -11 -10 -25 -19 -32 -21
-7 -1 -49 -25 -94 -52 -44 -28 -83 -49 -85 -46 -3 2 -13 -4 -24 -15 -11 -11
-23 -17 -28 -15 -4 3 -8 111 -8 240 0 197 -2 236 -15 249 -13 13 -19 13 -39 3z
m27 -22 c-3 -9 -6 -128 -6 -264 l0 -249 -86 -50 c-47 -28 -88 -51 -90 -51 -2
0 -28 16 -59 35 -30 19 -74 46 -97 59 -114 62 -165 91 -188 106 -14 10 -41 25
-60 35 -70 34 -8 -12 90 -68 260 -148 299 -173 295 -184 -2 -7 1 -13 7 -13 8
0 9 -220 5 -812 -7 -879 -6 -868 -62 -979 -38 -73 -87 -122 -163 -161 -37 -20
-83 -45 -102 -57 -19 -11 -38 -21 -42 -21 -18 0 -76 155 -64 168 2 1 20 -7 40
-19 20 -12 39 -19 42 -16 3 3 -9 13 -28 22 -18 10 -70 40 -116 68 l-84 51 24
18 c13 9 18 18 11 18 -6 0 -15 -5 -18 -11 -4 -5 -19 -15 -33 -20 -14 -5 -89
-47 -166 -93 -78 -46 -172 -102 -211 -123 -38 -22 -98 -57 -133 -79 l-63 -39
6 -60 c3 -33 13 -82 21 -108 9 -27 13 -51 10 -54 -11 -12 -139 18 -192 44 -69
34 -143 100 -189 169 -41 62 -105 228 -105 274 0 35 -4 33 270 192 118 69 232
135 252 147 l37 22 10 -43 c37 -148 126 -232 246 -233 146 0 257 105 326 310
l24 70 3 828 c2 509 6 827 12 827 5 0 34 16 64 35 30 19 58 35 61 35 3 0 34
17 68 39 34 21 105 63 157 93 52 31 133 78 180 106 93 55 105 60 96 36z m11
-176 c-3 -8 -6 -5 -6 6 -1 11 2 17 5 13 3 -3 4 -12 1 -19z m0 -55 c-3 -10 -5
-4 -5 12 0 17 2 24 5 18 2 -7 2 -21 0 -30z m-847 -167 c0 -3 -4 -8 -10 -11 -5
-3 -10 -1 -10 4 0 6 5 11 10 11 6 0 10 -2 10 -4z m1772 -284 l-3 -159 -42 -23
c-23 -13 -104 -61 -180 -106 l-138 -83 -136 81 -136 81 29 15 c16 8 108 61
206 118 97 57 179 104 182 104 3 0 7 -64 9 -142 l3 -143 0 146 -1 147 100 60
c55 33 102 61 105 61 3 1 4 -70 2 -157z m433 -467 c0 -201 -1 -365 -2 -365 -2
0 -51 29 -110 64 -104 61 -487 283 -508 294 -5 2 -1 -4 10 -16 11 -11 79 -54
150 -95 72 -41 203 -117 293 -169 l163 -94 -1 -523 c0 -611 -5 -661 -82 -881
-87 -247 -278 -511 -477 -660 l-66 -50 -5 388 c-3 213 -3 774 0 1246 l5 860
299 173 c165 95 304 177 310 183 5 5 12 10 16 10 3 0 5 -164 5 -365z m-1047
227 c15 -10 69 -42 120 -71 51 -29 99 -59 107 -68 13 -12 15 -121 15 -837 0
-781 -1 -827 -19 -899 -27 -102 -53 -151 -120 -217 -41 -41 -70 -60 -110 -73
-87 -28 -99 -25 -126 36 -13 28 -26 71 -30 95 -4 23 -10 42 -13 42 -4 0 -13 4
-20 8 -21 14 94 121 184 171 156 88 246 143 241 148 -5 5 -242 -129 -299 -169
-14 -10 -28 -18 -31 -18 -2 0 6 21 18 48 43 89 45 126 45 736 l0 582 38 18
c32 15 69 37 210 123 13 8 22 17 19 19 -3 3 -62 -29 -132 -70 -70 -42 -129
-76 -131 -76 -2 0 -4 36 -4 79 l0 80 125 71 c107 61 149 90 132 90 -2 0 -59
-31 -125 -70 -66 -38 -123 -70 -126 -70 -3 0 -6 70 -6 155 0 85 3 155 6 155 3
0 18 -8 32 -18z m-1968 -92 c0 -38 -3 -70 -7 -70 -14 0 -113 60 -113 68 0 14
70 46 80 36 5 -5 10 -27 13 -49 3 -30 4 -24 5 23 3 86 22 79 22 -8z m-81 -48
c45 -28 60 -56 34 -66 -9 -4 -12 -1 -8 7 4 6 1 5 -7 -3 -7 -8 -25 -23 -39 -32
l-27 -17 0 48 c0 26 -3 58 -7 69 -8 28 0 27 54 -6z m2409 -76 l33 -17 -3 -862
c-3 -820 -4 -864 -22 -912 -47 -120 -106 -194 -191 -236 -56 -27 -72 -31 -124
-27 -43 3 -71 12 -102 33 l-43 28 59 17 c33 9 74 24 91 33 45 23 119 109 148
172 56 117 56 111 56 1008 l0 828 33 -24 c17 -14 47 -32 65 -41z m-1403 -1315
l64 -38 -82 -48 c-45 -27 -164 -97 -265 -157 -101 -59 -187 -108 -192 -108 -5
0 -37 16 -71 36 l-61 36 43 25 c105 61 184 107 334 197 88 53 161 96 163 96 2
0 32 -17 67 -39z m81 -88 c10 -47 35 -107 52 -126 20 -23 41 -8 -213 -157
l-196 -115 7 -60 c14 -126 71 -263 143 -339 41 -45 33 -41 -64 27 -89 63 -148
125 -190 202 -33 60 -68 164 -80 242 l-6 41 123 72 c243 142 363 213 383 226
29 19 34 17 41 -13z m2024 -150 c0 -55 -4 -83 -9 -77 -9 8 -3 164 5 164 2 0 4
-39 4 -87z m-1733 31 l65 -37 -54 -30 c-49 -29 -408 -239 -470 -276 -27 -15
-30 -15 -80 13 -85 47 -85 47 -36 73 24 12 144 83 268 157 124 74 229 135 233
135 5 1 38 -15 74 -35z m1775 22 c10 -7 15 -16 11 -20 -4 -4 0 -4 9 -1 15 6
40 -7 196 -103 20 -12 52 -29 70 -36 17 -8 32 -20 32 -25 0 -6 9 -11 20 -11
11 0 20 -3 20 -8 0 -4 9 -12 20 -17 121 -62 127 -70 78 -98 -18 -10 -26 -12
-22 -4 4 6 -3 2 -15 -11 -12 -12 -26 -20 -31 -17 -5 3 -11 1 -15 -5 -4 -6 -13
-7 -23 -1 -9 5 -20 9 -25 10 -7 1 -87 51 -97 61 -3 3 -12 6 -20 8 -8 2 -16 8
-18 13 -2 5 -8 9 -13 9 -5 0 -40 20 -79 45 -39 25 -73 45 -76 45 -3 0 -13 8
-22 18 -10 10 -12 11 -7 2 9 -13 8 -13 -8 -1 -15 12 -18 27 -16 88 1 40 5 73
8 73 3 0 14 -7 23 -14z m-1648 -231 c15 -25 32 -45 38 -45 21 0 -3 -16 -157
-105 -82 -48 -177 -104 -210 -125 -33 -20 -93 -56 -133 -79 -41 -24 -71 -45
-69 -47 3 -3 39 15 82 40 42 26 78 46 79 46 1 0 3 -20 5 -45 5 -103 62 -247
128 -324 l34 -40 -73 37 c-178 91 -303 281 -320 485 l-3 38 270 158 270 158
16 -53 c9 -29 29 -74 43 -99z m-1045 79 c57 -34 60 -38 67 -82 17 -119 71
-246 136 -324 21 -27 36 -48 32 -48 -4 0 -31 16 -59 35 -104 68 -188 188 -218
310 -19 75 -30 145 -24 145 3 0 33 -16 66 -36z m2890 -146 c114 -68 159 -99
148 -104 -10 -3 -40 8 -74 27 -32 19 -70 41 -84 49 -168 97 -229 136 -229 148
0 7 -4 11 -9 8 -4 -3 -8 -46 -7 -96 1 -49 -1 -90 -4 -90 -3 0 -17 8 -30 17
-23 15 -24 16 -12 0 8 -9 22 -19 33 -22 34 -11 20 -25 -25 -25 -45 0 -66 -12
-45 -26 7 -4 9 -3 6 3 -4 6 9 10 33 10 22 0 40 -3 40 -6 5 -123 3 -231 -4
-231 -5 0 -42 20 -82 45 -41 24 -74 40 -74 35 0 -6 5 -10 11 -10 6 0 8 -7 5
-16 -3 -8 -2 -12 4 -9 6 3 23 -3 38 -14 16 -11 40 -23 55 -26 15 -4 27 -10 27
-14 0 -3 -63 -42 -140 -86 -77 -44 -177 -104 -223 -133 -45 -30 -86 -56 -92
-60 -8 -4 129 143 155 168 41 38 199 294 221 359 9 24 17 31 37 31 20 0 23 3
12 9 -8 6 -18 7 -24 4 -6 -4 -6 1 -1 13 17 42 55 170 55 187 0 21 1 21 279
-145z m-1496 81 c-18 -19 -36 -28 -43 -24 -8 5 2 15 27 31 51 31 54 30 16 -7z
m-35 -51 c12 -6 22 -14 22 -17 0 -4 -25 -21 -55 -38 l-55 -32 0 45 c0 32 4 44
14 44 8 0 18 5 22 12 5 8 0 9 -14 6 -15 -4 -22 -2 -22 8 0 8 -4 14 -8 14 -4 0
-6 -30 -4 -67 l4 -68 -184 -108 c-100 -59 -196 -116 -213 -126 l-30 -19 -67
40 -67 41 152 87 c84 48 208 121 277 162 l125 75 40 -24 c22 -13 50 -29 63
-35z m1338 28 c2 -6 14 -13 26 -13 12 -1 40 -16 64 -33 23 -16 47 -30 52 -30
5 0 15 -6 21 -14 7 -8 32 -24 57 -35 28 -13 42 -26 38 -33 -4 -6 -3 -8 4 -5 5
4 20 3 32 -1 20 -7 5 -19 -111 -86 -74 -43 -155 -91 -181 -107 l-48 -28 0 210
c0 209 0 210 21 199 11 -6 22 -17 25 -24z m-3028 1 c9 -8 8 -12 -5 -22 -23
-17 -33 -10 -33 21 0 25 6 25 38 1z m2319 -399 l-2 -382 -65 -38 c-209 -122
-436 -172 -621 -138 -78 14 -206 81 -263 137 -95 92 -163 231 -184 373 l-7 55
100 59 c55 32 178 105 273 162 96 57 178 104 183 104 5 0 9 -11 9 -25 0 -52
40 -132 88 -178 59 -54 106 -71 182 -64 130 11 244 120 290 275 7 23 15 42 16
42 2 0 2 -172 1 -382z m-1625 274 c50 -29 58 -38 63 -70 23 -143 67 -255 135
-341 l40 -50 -38 21 c-63 37 -164 148 -199 220 -43 86 -89 266 -67 257 5 -2
35 -19 66 -37z m-775 -47 c0 -25 -1 -45 -2 -45 -11 0 -85 45 -85 52 0 4 11 10
25 14 14 3 25 10 25 15 0 5 8 9 19 9 15 0 18 -8 18 -45z m-37 -45 c22 -11 40
-26 40 -32 0 -6 -3 -8 -7 -5 -3 4 -14 0 -24 -9 -11 -9 -25 -14 -35 -10 -14 5
-15 4 -4 -9 10 -13 9 -15 -7 -15 -17 0 -19 7 -19 50 1 27 5 50 9 50 4 0 26 -9
47 -20z m1215 -139 c48 -30 61 -43 63 -67 12 -118 75 -274 144 -356 21 -27 36
-48 33 -48 -3 0 -37 25 -76 56 -80 64 -137 132 -172 206 -35 75 -77 249 -60
247 4 0 35 -17 68 -38z m2366 -106 c50 -34 50 -34 29 -52 -11 -10 -22 -16 -24
-13 -1 3 -11 -3 -21 -13 -9 -10 -24 -16 -32 -13 -8 3 -12 2 -9 -3 7 -10 -39
-39 -94 -60 -19 -8 -40 -21 -47 -29 -7 -8 -17 -11 -25 -6 -7 4 -10 4 -6 -1 7
-7 -44 -47 -62 -50 -8 -1 -104 -57 -120 -71 -8 -6 -25 -15 -37 -18 -22 -7 -23
-6 -23 68 0 74 4 82 33 77 5 -1 6 3 2 8 -3 6 11 20 32 31 161 88 158 87 147
68 -4 -7 -3 -8 5 -4 6 4 9 11 6 16 -7 11 35 35 53 32 6 -2 12 5 12 14 0 10 3
14 7 11 3 -4 14 0 24 9 16 14 60 31 87 33 7 1 35 -15 63 -34z m-3467 -71 c3
-8 10 -13 15 -10 5 3 14 -1 21 -9 7 -8 16 -15 21 -15 5 0 26 -11 47 -24 20
-12 40 -24 45 -24 20 -4 106 -70 99 -77 -4 -5 -1 -5 5 -1 14 8 73 -23 73 -38
0 -5 3 -6 6 -3 8 7 65 -22 76 -39 4 -7 20 -15 34 -18 15 -4 41 -18 58 -31 18
-14 59 -39 92 -56 32 -17 62 -37 66 -43 4 -6 8 -7 8 -2 0 5 10 1 23 -10 12
-11 40 -29 62 -40 22 -10 43 -23 46 -28 4 -5 12 -5 19 -1 8 5 11 4 6 -3 -3 -6
4 -14 16 -18 13 -4 29 -14 36 -23 10 -12 12 -12 6 -1 -5 8 8 3 28 -12 19 -15
39 -24 43 -20 5 4 5 1 1 -5 -5 -9 0 -13 13 -13 12 0 21 -4 21 -9 0 -8 55 -36
72 -36 3 0 10 -4 15 -9 5 -5 3 -6 -4 -2 -9 5 -11 2 -7 -8 3 -9 10 -13 15 -10
6 3 21 -2 34 -10 14 -9 25 -13 25 -9 0 5 5 1 10 -7 5 -8 14 -16 20 -16 5 -1
15 -2 21 -3 5 0 8 -5 4 -10 -3 -5 11 -15 30 -22 19 -7 35 -16 35 -20 0 -4 16
-13 35 -19 21 -7 32 -16 29 -22 -5 -7 0 -9 14 -6 12 4 20 2 17 -2 -5 -8 10
-23 25 -26 24 -4 60 -26 60 -35 0 -7 3 -10 6 -6 4 3 25 -7 48 -22 22 -16 44
-29 49 -29 18 -2 35 -18 40 -37 4 -18 5 -18 6 3 0 12 6 22 11 22 6 0 10 -39
10 -96 0 -61 -4 -93 -10 -89 -5 3 -10 12 -10 18 0 7 -10 18 -22 26 l-23 14 20
-23 c23 -27 11 -21 -56 27 -26 18 -52 33 -58 33 -7 0 -9 5 -5 12 4 6 3 8 -3 5
-14 -9 -65 17 -55 28 4 5 2 5 -5 1 -10 -5 -59 21 -98 52 -5 4 -25 14 -42 21
-18 7 -30 18 -26 24 3 5 2 7 -4 4 -5 -3 -26 5 -46 18 -20 14 -41 25 -46 25 -6
0 -11 4 -11 9 0 5 -14 12 -30 16 -17 4 -28 11 -24 16 3 5 2 9 -3 8 -21 -4 -34
2 -27 13 4 6 3 8 -4 4 -6 -3 -54 21 -107 54 -53 33 -100 60 -106 60 -5 0 -9 4
-9 9 0 5 -8 11 -17 15 -10 3 -25 10 -33 15 -36 25 -151 91 -156 91 -4 0 -29
16 -56 36 -28 19 -47 31 -44 25 4 -7 1 -8 -8 -5 -9 3 -14 10 -11 14 3 5 -4 11
-15 15 -11 3 -20 11 -20 16 0 6 -4 8 -8 5 -12 -7 -162 82 -162 96 0 6 -3 9 -6
5 -7 -7 -133 58 -149 76 -6 7 -17 13 -25 15 -8 2 -26 13 -39 25 -13 12 -21 16
-17 10 4 -7 -21 6 -56 30 -35 23 -80 50 -101 60 -37 17 -44 43 -9 30 9 -3 13
-2 9 3 -8 8 86 63 109 64 7 0 15 -7 18 -16z m2974 -32 c3 -16 -6 -25 -40 -40
-24 -10 -49 -26 -57 -35 -7 -9 -17 -14 -22 -11 -5 3 -9 0 -9 -5 0 -6 -5 -11
-12 -11 -6 0 -26 -11 -44 -25 -18 -14 -36 -25 -41 -25 -5 0 -25 -11 -46 -25
-20 -14 -37 -23 -37 -19 0 3 -14 -6 -31 -21 -19 -15 -38 -24 -48 -20 -8 3 -12
3 -8 -1 9 -9 -43 -45 -55 -38 -4 3 -8 0 -8 -6 0 -7 -7 -10 -14 -7 -10 4 -13 1
-9 -9 4 -10 -2 -14 -21 -14 -14 0 -26 -5 -26 -11 0 -5 -4 -8 -9 -5 -5 3 -11
-1 -15 -9 -3 -8 -12 -15 -21 -15 -8 0 -15 -5 -15 -12 0 -6 -3 -8 -7 -5 -3 4
-15 0 -25 -10 -17 -15 -18 -15 -18 13 0 25 9 35 71 72 39 23 75 39 81 36 7 -5
8 -2 3 6 -6 10 -4 12 11 6 10 -4 15 -4 12 0 -8 8 19 30 75 62 21 12 35 16 31
10 -4 -7 4 -3 18 10 13 12 30 22 36 22 7 0 12 4 12 8 0 5 19 17 43 28 23 10
68 36 99 56 31 21 61 38 65 38 4 0 19 9 33 20 30 23 44 21 48 -8z m-1172 -576
c19 -14 19 -15 -1 -22 -11 -4 -32 -16 -47 -26 -16 -11 -28 -16 -28 -11 0 4 -4
3 -8 -2 -4 -6 -19 -18 -34 -28 -16 -9 -39 -24 -53 -33 -25 -16 -25 -16 -25 12
0 25 10 35 78 76 86 53 90 54 118 34z m-115 -360 c5 3 9 1 9 -4 0 -5 12 -15
28 -22 l27 -12 -25 -12 c-14 -6 -34 -19 -45 -29 -11 -10 -28 -16 -37 -13 -10
2 -16 0 -13 -4 3 -5 1 -12 -5 -15 -7 -5 -10 19 -9 74 l2 81 29 -25 c16 -14 34
-23 39 -19z"/>
<path d="M2884 4610 c0 -52 1 -74 3 -47 2 26 2 68 0 95 -2 26 -3 4 -3 -48z"/>
<path d="M2820 4455 c-17 -10 -20 -14 -9 -15 9 0 22 7 29 15 15 18 12 18 -20
0z"/>
<path d="M2746 4415 c-10 -8 -24 -16 -30 -18 -6 -2 -9 -7 -6 -10 3 -3 23 5 45
19 22 13 33 24 25 24 -8 -1 -24 -7 -34 -15z"/>
<path d="M2626 4345 c-32 -19 -60 -35 -61 -35 -1 0 -29 -16 -61 -35 -32 -19
-52 -35 -45 -35 15 0 175 91 179 102 2 4 9 8 16 8 15 0 55 29 40 30 -5 0 -36
-16 -68 -35z"/>
<path d="M1300 2660 c0 -5 5 -10 11 -10 5 0 7 5 4 10 -3 6 -8 10 -11 10 -2 0
-4 -4 -4 -10z"/>
<path d="M1351 2631 c28 -22 89 -54 89 -47 0 3 -14 13 -32 22 -18 9 -38 23
-46 30 -7 8 -18 14 -24 14 -6 0 0 -8 13 -19z"/>
<path d="M2540 2555 c0 -6 56 -35 67 -35 4 0 -5 9 -22 20 -29 19 -45 25 -45
15z"/>
<path d="M3538 2567 c-20 -12 -71 -42 -112 -66 -42 -25 -74 -46 -72 -49 5 -4
121 59 174 94 18 13 38 25 45 27 7 2 10 7 7 10 -3 3 -22 -5 -42 -16z"/>
<path d="M3702 3923 c-24 -14 -41 -28 -38 -30 5 -6 96 44 96 52 0 10 -16 4
-58 -22z"/>
<path d="M3505 2041 c-3 -5 -2 -12 3 -15 5 -3 9 1 9 9 0 17 -3 19 -12 6z"/>
<path d="M4301 1961 c11 -30 48 -65 97 -90 13 -7 22 -8 22 -2 0 5 -9 13 -20
16 -11 4 -18 11 -15 16 4 5 -1 9 -9 9 -16 0 -67 46 -60 53 3 2 -2 10 -11 17
-13 11 -13 8 -4 -19z"/>
<path d="M4315 1840 c-3 -5 -1 -10 4 -10 6 0 11 5 11 10 0 6 -2 10 -4 10 -3 0
-8 -4 -11 -10z"/>
<path d="M4460 2095 c0 -2 33 -23 73 -46 133 -78 125 -74 93 -46 -16 14 -41
31 -55 38 -14 8 -43 24 -63 36 -38 23 -48 27 -48 18z"/>
<path d="M4476 2053 c11 -10 19 -24 17 -30 -3 -7 6 -10 21 -9 14 2 26 -1 26
-5 0 -5 5 -9 12 -9 6 0 19 -7 29 -16 10 -9 24 -14 31 -11 9 3 7 7 -7 13 -11 4
-38 19 -60 34 -22 15 -51 32 -65 39 -25 12 -25 12 -4 -6z"/>
<path d="M4698 2053 c7 -3 16 -2 19 1 4 3 -2 6 -13 5 -11 0 -14 -3 -6 -6z"/>
<path d="M3056 2064 c-10 -27 -7 -738 4 -754 6 -10 10 120 10 378 0 215 -2
392 -4 392 -2 0 -7 -7 -10 -16z"/>
<path d="M2690 836 c0 -2 7 -7 16 -10 8 -3 12 -2 9 4 -6 10 -25 14 -25 6z"/>
<path d="M3042 680 c0 -19 2 -27 5 -17 2 9 2 25 0 35 -3 9 -5 1 -5 -18z"/>
<path d="M4220 1540 c-9 -6 -10 -10 -3 -10 6 0 15 5 18 10 8 12 4 12 -15 0z"/>
<path d="M2745 5130 c-3 -5 1 -10 9 -10 8 0 18 5 21 10 3 6 -1 10 -9 10 -8 0
-18 -4 -21 -10z"/>
<path d="M3802 5120 c0 -14 2 -19 5 -12 2 6 2 18 0 25 -3 6 -5 1 -5 -13z"/>
<path d="M4415 5120 c3 -5 8 -10 11 -10 2 0 4 5 4 10 0 6 -5 10 -11 10 -5 0
-7 -4 -4 -10z"/>
<path d="M2792 5090 c0 -14 2 -19 5 -12 2 6 2 18 0 25 -3 6 -5 1 -5 -13z"/>
<path d="M4452 5085 c0 -16 2 -22 5 -12 2 9 2 23 0 30 -3 6 -5 -1 -5 -18z"/>
<path d="M3885 5087 c-11 -6 -33 -20 -49 -31 -22 -14 -28 -15 -24 -4 4 8 2 21
-3 29 -6 10 -9 4 -9 -18 0 -38 6 -40 40 -13 14 11 30 20 35 20 6 0 19 7 29 15
23 18 10 19 -19 2z"/>
<path d="M2670 5079 c0 -5 -4 -8 -9 -4 -5 3 -12 1 -15 -4 -8 -13 22 -7 36 7 9
9 9 12 0 12 -7 0 -12 -5 -12 -11z"/>
<path d="M3155 5080 c3 -5 8 -10 11 -10 2 0 4 5 4 10 0 6 -5 10 -11 10 -5 0
-7 -4 -4 -10z"/>
<path d="M3936 5082 c-3 -5 1 -9 9 -9 8 0 12 4 9 9 -3 4 -7 8 -9 8 -2 0 -6 -4
-9 -8z"/>
<path d="M3190 5055 c0 -8 4 -15 10 -15 5 0 7 7 4 15 -4 8 -8 15 -10 15 -2 0
-4 -7 -4 -15z"/>
<path d="M3875 5045 c-22 -13 -37 -25 -33 -25 9 0 78 41 78 46 0 6 -3 5 -45
-21z"/>
<path d="M2588 5038 c-21 -12 -38 -26 -38 -32 0 -5 9 -1 21 10 12 10 23 18 25
17 10 -7 22 -2 28 12 7 19 9 19 -36 -7z"/>
<path d="M3240 5031 c14 -11 30 -21 35 -21 11 0 -7 14 -40 31 -13 7 -12 3 5
-10z"/>
<path d="M3764 5025 c-11 -22 -10 -24 7 -15 10 6 16 17 13 25 -8 19 -7 19 -20
-10z"/>
<path d="M3300 5030 c50 -36 253 -151 257 -146 4 3 0 6 -8 6 -12 0 -11 2 1 11
12 9 12 10 -3 5 -20 -6 -61 16 -50 27 3 4 -4 7 -16 7 -14 0 -20 4 -15 12 4 7
3 8 -4 4 -14 -9 -95 37 -85 48 4 4 0 4 -9 1 -9 -4 -21 1 -29 12 -8 10 -23 19
-34 21 -17 2 -18 1 -5 -8z"/>
<path d="M1990 5026 c0 -2 17 -14 38 -25 l37 -21 -30 25 c-28 23 -45 31 -45
21z"/>
<path d="M3814 5012 c-7 -4 -11 -21 -11 -39 1 -17 6 -29 10 -26 5 3 7 13 4 23
-2 9 0 25 5 34 10 18 9 19 -8 8z"/>
<path d="M4422 4990 c0 -14 2 -19 5 -12 2 6 2 18 0 25 -3 6 -5 1 -5 -13z"/>
<path d="M1990 4990 c0 -5 5 -10 11 -10 5 0 7 5 4 10 -3 6 -8 10 -11 10 -2 0
-4 -4 -4 -10z"/>
<path d="M3720 4989 c0 -5 5 -7 10 -4 6 3 10 8 10 11 0 2 -4 4 -10 4 -5 0 -10
-5 -10 -11z"/>
<path d="M4451 4984 c0 -11 3 -14 6 -6 3 7 2 16 -1 19 -3 4 -6 -2 -5 -13z"/>
<path d="M3670 4959 c-17 -13 -18 -17 -5 -10 33 17 51 31 40 31 -5 0 -21 -10
-35 -21z"/>
<path d="M3740 4970 c-9 -6 -10 -10 -3 -10 6 0 15 5 18 10 8 12 4 12 -15 0z"/>
<path d="M2060 4949 c14 -11 19 -18 13 -14 -7 3 -13 1 -13 -5 0 -6 -5 -8 -12
-4 -7 4 -8 3 -4 -4 4 -7 4 -12 -1 -13 -31 -3 -48 -10 -55 -23 -4 -8 -28 -22
-53 -32 -25 -9 -45 -21 -45 -26 0 -5 -4 -7 -9 -4 -5 3 -14 -1 -21 -9 -7 -8
-17 -12 -23 -8 -5 3 -7 1 -3 -5 4 -6 -8 -16 -29 -23 -19 -7 -35 -17 -35 -21 0
-4 -7 -8 -15 -8 -8 0 -15 -4 -15 -9 0 -10 -38 -24 -57 -22 -7 1 -13 -2 -13 -7
0 -5 -42 -34 -92 -65 -138 -82 -167 -97 -184 -97 -9 0 -12 -5 -8 -12 5 -8 2
-9 -10 -5 -9 4 -14 3 -11 -2 3 -5 -11 -15 -30 -22 -19 -7 -35 -15 -35 -19 0
-3 -26 -18 -57 -35 -32 -16 -64 -36 -71 -43 -8 -7 -19 -9 -25 -5 -7 3 -9 3 -5
-2 4 -4 -14 -19 -40 -33 -26 -13 -55 -31 -64 -39 -27 -24 -41 -6 -36 48 3 27
2 49 -2 49 -4 0 -8 -32 -9 -72 l-2 -71 25 16 c14 10 47 29 73 43 26 15 80 45
118 69 105 63 183 108 255 149 36 20 72 41 80 46 51 32 151 90 154 90 2 0 71
39 153 86 81 48 173 100 203 117 30 16 56 31 57 32 2 1 -14 9 -35 19 l-37 17
25 -22z"/>
<path d="M2435 4949 c-27 -18 -27 -20 -5 -13 13 3 30 13 38 20 19 20 2 16 -33
-7z"/>
<path d="M3367 4959 c7 -9 10 -19 6 -23 -4 -4 1 -4 10 0 10 3 17 7 15 8 -2 1
-12 8 -23 16 -18 14 -19 13 -8 -1z"/>
<path d="M3684 4934 c-18 -14 -18 -15 4 -4 12 6 22 13 22 15 0 8 -5 6 -26 -11z"/>
<path d="M3586 4914 c-11 -8 -16 -14 -10 -14 13 0 39 18 34 24 -3 2 -14 -2
-24 -10z"/>
<path d="M4452 4905 c0 -16 2 -22 5 -12 2 9 2 23 0 30 -3 6 -5 -1 -5 -18z"/>
<path d="M2051 4879 c-34 -21 -65 -39 -67 -39 -2 0 -52 -29 -111 -63 -60 -35
-133 -78 -163 -94 -30 -17 -85 -49 -122 -72 -37 -22 -70 -41 -72 -41 -3 0 -40
-22 -83 -48 -85 -53 -244 -144 -357 -206 -39 -22 -74 -44 -78 -50 -4 -6 -8
-327 -8 -712 0 -631 2 -702 16 -708 21 -8 24 -8 24 4 0 6 -5 9 -12 8 -9 -2
-12 35 -12 152 0 85 4 166 8 180 6 19 5 21 -3 10 -8 -11 -11 -3 -11 33 0 27 3
46 8 44 4 -3 7 10 7 28 0 18 -3 31 -7 28 -5 -2 -8 17 -8 42 0 28 4 44 10 40 6
-3 10 1 10 10 0 9 -4 14 -9 10 -10 -6 -14 743 -4 778 4 14 8 15 18 7 9 -8 15
-8 20 0 3 5 0 10 -8 10 -8 0 -20 7 -27 15 -21 25 10 19 53 -11 l38 -25 77 42
c108 59 240 135 432 249 91 54 183 107 205 119 22 11 65 36 96 53 30 18 114
67 187 108 72 41 132 78 132 82 0 4 -10 10 -22 14 -13 3 -35 15 -50 25 -14 11
-30 19 -35 18 -4 0 -37 -18 -72 -40z m110 10 c11 -5 17 -14 14 -19 -3 -4 4 -6
15 -3 11 3 20 3 20 -1 0 -7 -83 -51 -92 -48 -5 1 -8 -3 -8 -9 0 -6 -9 -9 -20
-6 -11 3 -20 0 -20 -5 0 -13 -24 -33 -73 -59 -30 -15 -42 -17 -60 -9 -19 10
-20 9 -5 -3 15 -12 15 -14 -5 -27 -12 -8 -25 -14 -29 -15 -3 0 -10 -3 -14 -7
-12 -12 -26 -9 -18 4 4 7 3 8 -5 4 -6 -4 -9 -11 -6 -16 6 -10 -54 -42 -66 -35
-4 3 -13 -4 -19 -16 -7 -11 -33 -30 -58 -42 -26 -12 -61 -32 -79 -44 -17 -13
-36 -23 -41 -23 -6 0 -17 -6 -24 -13 -7 -7 -42 -29 -78 -48 -36 -18 -68 -38
-71 -43 -4 -5 -12 -5 -18 -2 -7 5 -10 2 -9 -6 2 -7 -4 -13 -12 -13 -8 0 -19
-6 -23 -13 -5 -8 -17 -10 -30 -7 -17 5 -19 4 -7 -4 14 -10 12 -13 -6 -10 -4 0
-10 -3 -13 -8 -9 -13 -122 -73 -138 -73 -7 0 -13 -5 -13 -10 0 -6 -12 -15 -27
-21 -22 -8 -35 -7 -60 7 -18 9 -33 20 -33 24 0 7 71 44 81 42 4 -1 18 9 32 22
14 13 29 21 32 18 3 -4 9 -1 13 5 4 6 14 13 22 15 8 2 19 8 25 14 17 20 126
74 136 69 5 -4 6 1 3 9 -4 11 3 17 23 22 15 4 30 10 33 13 8 10 59 42 63 39 1
-2 22 11 46 29 24 18 48 30 53 27 4 -3 8 0 8 6 0 6 5 8 10 5 6 -3 10 -3 10 2
0 10 62 47 73 45 4 -1 17 7 29 18 12 11 28 20 35 20 7 0 13 5 13 12 0 6 3 8 6
5 4 -3 18 3 32 13 13 11 30 20 36 20 6 0 26 14 45 31 19 16 40 28 47 25 7 -3
15 2 18 10 3 9 10 13 15 10 5 -3 14 1 21 10 7 8 19 13 27 10 8 -3 11 -1 8 4
-3 6 0 10 7 10 7 0 26 11 42 25 31 27 56 31 87 14z"/>
<path d="M2370 4910 c-8 -5 -10 -10 -5 -10 6 0 17 5 25 10 8 5 11 10 5 10 -5
0 -17 -5 -25 -10z"/>
<path d="M3613 4897 c-40 -20 -56 -37 -33 -37 5 0 34 -16 64 -35 30 -19 59
-35 63 -35 4 0 -4 8 -20 18 -15 10 -24 22 -20 26 4 4 1 5 -7 2 -8 -4 -28 6
-45 20 -18 15 -23 23 -12 20 11 -3 15 -2 12 4 -3 6 -2 10 2 10 5 0 18 7 29 15
26 20 17 18 -33 -8z"/>
<path d="M3800 4892 c0 -18 5 -32 10 -32 6 0 8 12 6 26 -7 39 -16 42 -16 6z"/>
<path d="M2328 4883 c7 -3 16 -2 19 1 4 3 -2 6 -13 5 -11 0 -14 -3 -6 -6z"/>
<path d="M3772 4855 c0 -16 2 -22 5 -12 2 9 2 23 0 30 -3 6 -5 -1 -5 -18z"/>
<path d="M4390 4840 c-9 -6 -10 -10 -3 -10 6 0 15 5 18 10 8 12 4 12 -15 0z"/>
<path d="M4452 4820 c0 -19 2 -27 5 -17 2 9 2 25 0 35 -3 9 -5 1 -5 -18z"/>
<path d="M3802 4778 c2 -36 7 -52 16 -50 6 1 12 -2 12 -8 0 -5 4 -10 10 -10 5
0 26 -11 46 -25 20 -14 42 -25 48 -24 7 0 6 3 -2 6 -6 2 -10 9 -7 14 4 5 0 6
-8 4 -7 -3 -31 8 -52 25 -21 16 -42 30 -47 30 -5 0 -6 19 -2 45 4 31 3 45 -5
45 -8 0 -11 -17 -9 -52z"/>
<path d="M4419 4828 c-7 -25 -7 -48 1 -53 6 -4 10 7 10 24 0 17 -2 31 -5 31
-3 0 -5 -1 -6 -2z"/>
<path d="M4314 4794 c-18 -14 -18 -15 4 -4 12 6 22 13 22 15 0 8 -5 6 -26 -11z"/>
<path d="M4355 4789 c-4 -6 -5 -12 -2 -15 2 -3 7 2 10 11 7 17 1 20 -8 4z"/>
<path d="M2134 4775 c-10 -8 -14 -15 -8 -15 6 0 17 7 24 15 16 19 9 19 -16 0z"/>
<path d="M3768 4765 c2 -14 8 -25 12 -25 10 0 1 38 -10 45 -4 2 -5 -7 -2 -20z"/>
<path d="M4825 4770 c-39 -26 -26 -26 22 0 21 11 31 20 23 20 -8 0 -28 -9 -45
-20z"/>
<path d="M3680 4770 c35 -24 54 -31 30 -11 -14 11 -29 21 -35 21 -5 0 -3 -5 5
-10z"/>
<path d="M3720 4776 c0 -2 7 -7 16 -10 8 -3 12 -2 9 4 -6 10 -25 14 -25 6z"/>
<path d="M4454 4675 c0 -60 1 -84 3 -52 2 32 2 81 0 110 -2 29 -3 3 -3 -58z"/>
<path d="M4251 4761 c-8 -5 -20 -7 -28 -4 -8 3 -13 1 -11 -5 3 -11 -28 -32
-99 -69 -18 -9 -33 -21 -33 -26 0 -5 7 -4 15 3 8 6 20 10 27 8 7 -3 -11 -18
-41 -35 -53 -31 -53 -31 -30 -45 115 -70 202 -118 207 -114 3 3 0 6 -7 6 -7 0
-9 5 -5 12 4 7 3 8 -4 4 -7 -4 -23 4 -36 17 -14 14 -27 22 -30 20 -3 -3 -18 3
-33 13 -15 10 -41 25 -56 31 -27 12 -33 41 -8 36 6 -2 11 2 11 7 0 6 5 10 10
10 6 0 19 9 30 20 12 12 26 18 32 14 7 -4 8 -3 4 4 -4 6 -14 8 -24 5 -39 -15
10 26 63 52 30 14 57 30 60 36 8 11 4 11 -14 0z"/>
<path d="M4296 4755 c-11 -9 -14 -15 -7 -15 7 0 19 7 27 15 20 19 5 19 -20 0z"/>
<path d="M4846 4745 c-11 -8 -18 -17 -15 -19 2 -2 15 4 28 15 27 22 15 26 -13
4z"/>
<path d="M2070 4740 c-9 -6 -10 -10 -3 -10 6 0 15 5 18 10 8 12 4 12 -15 0z"/>
<path d="M3754 4725 c11 -8 25 -15 30 -15 6 0 2 7 -8 15 -11 8 -25 15 -30 15
-6 0 -2 -7 8 -15z"/>
<path d="M4215 4710 c-27 -17 -46 -30 -41 -30 11 0 96 49 96 55 0 7 0 7 -55
-25z"/>
<path d="M4739 4733 c-1 -5 -1 -11 0 -15 0 -5 -6 -8 -14 -8 -8 0 -15 -4 -15
-8 0 -5 -11 -14 -25 -20 -32 -15 -38 -15 -29 0 5 7 3 8 -5 3 -9 -5 -9 -11 -3
-17 7 -7 32 2 76 28 36 21 63 40 61 43 -3 2 -11 -1 -17 -7 -15 -15 -32 -16
-23 -2 3 6 4 10 1 10 -3 0 -7 -3 -7 -7z"/>
<path d="M4787 4710 c-35 -22 -49 -36 -19 -21 12 6 22 9 22 6 0 -4 7 1 16 10
23 23 14 25 -19 5z"/>
<path d="M2014 4704 c-18 -14 -18 -14 6 -3 31 14 36 19 24 19 -6 0 -19 -7 -30
-16z"/>
<path d="M3800 4631 c0 -58 4 -80 14 -84 11 -5 12 1 5 26 -5 18 -7 53 -6 78 2
44 3 46 22 33 11 -8 24 -14 30 -14 5 0 -5 9 -23 20 -18 11 -35 20 -37 20 -3 0
-5 -36 -5 -79z"/>
<path d="M4997 4689 c-10 -6 -25 -8 -33 -5 -9 3 -12 2 -9 -5 4 -6 -1 -17 -11
-26 -11 -8 -1 -5 21 8 39 22 64 39 55 39 -3 0 -13 -5 -23 -11z"/>
<path d="M4422 4665 c0 -16 2 -22 5 -12 2 9 2 23 0 30 -3 6 -5 -1 -5 -18z"/>
<path d="M955 4669 c-4 -6 -5 -12 -2 -15 2 -3 7 2 10 11 7 17 1 20 -8 4z"/>
<path d="M1955 4670 c-3 -6 1 -7 9 -4 18 7 21 14 7 14 -6 0 -13 -4 -16 -10z"/>
<path d="M4705 4661 c-3 -5 -2 -12 3 -15 5 -3 9 1 9 9 0 17 -3 19 -12 6z"/>
<path d="M4989 4652 c-13 -10 -41 -26 -61 -37 -21 -10 -36 -21 -34 -23 5 -4
89 38 96 48 3 4 14 12 25 18 11 6 15 12 9 12 -6 0 -22 -8 -35 -18z"/>
<path d="M1900 4640 c-9 -6 -10 -10 -3 -10 6 0 15 5 18 10 8 12 4 12 -15 0z"/>
<path d="M3950 4646 c0 -2 7 -7 16 -10 8 -3 12 -2 9 4 -6 10 -25 14 -25 6z"/>
<path d="M4041 4641 c-8 -5 -23 -8 -33 -6 -18 4 -24 -6 -12 -18 7 -6 64 19 64
28 0 7 -3 6 -19 -4z"/>
<path d="M4656 4635 c-11 -8 -18 -17 -15 -19 2 -2 15 4 28 15 27 22 15 26 -13
4z"/>
<path d="M742 4620 c0 -14 2 -19 5 -12 2 6 2 18 0 25 -3 6 -5 1 -5 -13z"/>
<path d="M952 4620 c0 -14 2 -19 5 -12 2 6 2 18 0 25 -3 6 -5 1 -5 -13z"/>
<path d="M990 4574 c0 -38 5 -76 11 -84 7 -11 8 9 4 65 -7 100 -15 110 -15 19z"/>
<path d="M4570 4624 c0 -6 -27 -23 -60 -39 -32 -17 -59 -34 -60 -38 0 -5 26 6
58 24 67 38 78 46 69 56 -4 3 -7 2 -7 -3z"/>
<path d="M4848 4605 c-20 -14 -39 -25 -42 -25 -6 0 -78 -48 -86 -57 -6 -8 79
40 139 79 25 15 41 28 35 28 -5 0 -26 -11 -46 -25z"/>
<path d="M1840 4605 c-14 -8 -20 -14 -15 -14 6 0 21 6 35 14 14 8 21 14 15 14
-5 0 -21 -6 -35 -14z"/>
<path d="M4606 4607 c-16 -12 -16 -13 2 -13 10 0 19 6 19 13 0 7 -1 13 -2 13
-1 0 -9 -6 -19 -13z"/>
<path d="M4422 4575 c0 -16 2 -22 5 -12 2 9 2 23 0 30 -3 6 -5 -1 -5 -18z"/>
<path d="M948 4583 c-2 -5 0 -39 3 -78 7 -85 9 -82 12 13 2 62 -4 90 -15 65z"/>
<path d="M4513 4552 l-62 -37 -3 -81 -3 -80 31 20 c65 43 68 46 27 26 l-43
-20 0 60 c0 38 4 59 10 55 5 -3 7 0 4 8 -3 9 7 20 28 30 32 16 88 57 78 56 -3
0 -33 -17 -67 -37z"/>
<path d="M1780 4570 c0 -5 4 -10 9 -10 6 0 13 5 16 10 3 6 -1 10 -9 10 -9 0
-16 -4 -16 -10z"/>
<path d="M4842 4565 c-38 -21 -50 -37 -15 -20 18 9 35 20 38 26 7 11 7 11 -23
-6z"/>
<path d="M1725 4539 c-16 -10 -25 -19 -19 -19 7 0 22 9 35 20 30 24 23 24 -16
-1z"/>
<path d="M4083 4530 c0 -10 6 -16 13 -13 6 2 28 -5 48 -17 21 -11 35 -16 32
-11 -4 5 -26 21 -50 34 -40 22 -44 23 -43 7z"/>
<path d="M2373 4530 c-13 -5 -23 -11 -23 -14 0 -7 40 6 46 15 6 10 6 10 -23
-1z"/>
<path d="M4411 4526 c-10 -12 -8 -13 8 -9 12 3 18 9 15 14 -7 12 -10 11 -23
-5z"/>
<path d="M4693 4535 c4 -5 -1 -17 -10 -28 -17 -19 -17 -20 5 -8 25 13 28 26
10 37 -7 4 -10 3 -5 -1z"/>
<path d="M4742 4509 c-18 -12 -31 -23 -29 -26 5 -4 77 36 77 43 0 9 -16 3 -48
-17z"/>
<path d="M1646 4495 c-20 -14 -41 -25 -46 -25 -6 0 -10 -4 -10 -9 0 -5 9 -7
20 -4 11 3 20 10 20 15 0 5 3 7 8 5 4 -2 18 7 31 20 31 30 23 29 -23 -2z"/>
<path d="M2325 4485 c-33 -14 -73 -32 -90 -41 l-30 -16 0 -289 c0 -253 2 -288
15 -283 8 4 40 15 70 26 51 17 46 18 -37 2 l-33 -7 0 277 0 276 27 6 c15 4 38
13 52 20 14 8 31 14 36 14 6 0 24 9 40 20 40 26 23 25 -50 -5z"/>
<path d="M4320 4480 c-8 -5 -12 -11 -9 -14 3 -3 14 1 25 9 21 16 8 20 -16 5z"/>
<path d="M2925 4464 c28 -21 392 -234 400 -234 15 0 -9 20 -58 48 -28 16 -119
69 -201 116 -141 82 -185 104 -141 70z"/>
<path d="M4195 4470 c3 -6 12 -10 20 -10 7 0 16 -5 18 -10 3 -6 4 -5 3 1 -1 7
-12 16 -25 20 -14 6 -20 5 -16 -1z"/>
<path d="M4366 4467 c-16 -12 -16 -14 -3 -14 9 0 18 6 21 14 3 7 4 13 3 13 -2
0 -11 -6 -21 -13z"/>
<path d="M4668 4464 c-16 -8 -28 -17 -28 -19 0 -10 16 -4 40 15 30 23 25 25
-12 4z"/>
<path d="M4575 4443 l-30 -25 40 23 c51 29 51 29 34 29 -8 -1 -27 -12 -44 -27z"/>
<path d="M736 4429 c3 -5 10 -7 15 -4 5 4 9 2 9 -4 0 -6 14 -18 31 -27 20 -10
30 -11 27 -4 -2 6 -6 10 -10 8 -3 -2 -16 6 -27 16 -23 21 -55 31 -45 15z"/>
<path d="M1540 4430 c-9 -6 -10 -10 -3 -10 6 0 15 5 18 10 8 12 4 12 -15 0z"/>
<path d="M4598 4424 c-37 -20 -36 -29 1 -10 16 9 32 12 36 8 5 -4 5 -1 1 6 -4
6 -8 12 -9 12 -1 -1 -14 -8 -29 -16z"/>
<path d="M949 4424 c0 -5 0 -30 1 -56 1 -44 -10 -62 -24 -39 -5 8 -46 23 -46
16 0 -2 19 -14 43 -27 l42 -24 -2 64 c-1 35 -4 67 -7 70 -3 3 -6 1 -7 -4z"/>
<path d="M1458 4386 c-32 -17 -58 -34 -58 -38 0 -3 26 8 58 25 65 35 67 36 61
41 -2 2 -30 -11 -61 -28z"/>
<path d="M756 4382 c-3 -5 1 -9 9 -9 8 0 12 4 9 9 -3 4 -7 8 -9 8 -2 0 -6 -4
-9 -8z"/>
<path d="M4489 4360 c-13 -10 -18 -19 -11 -20 6 0 12 4 12 8 0 5 10 14 23 20
12 6 17 11 11 11 -7 1 -22 -8 -35 -19z"/>
<path d="M800 4360 c8 -5 20 -10 25 -10 6 0 3 5 -5 10 -8 5 -19 10 -25 10 -5
0 -3 -5 5 -10z"/>
<path d="M855 4360 c3 -5 8 -10 11 -10 2 0 4 5 4 10 0 6 -5 10 -11 10 -5 0 -7
-4 -4 -10z"/>
<path d="M843 4327 c0 -7 11 -13 24 -13 27 -2 27 -1 -3 14 -15 8 -21 8 -21 -1z"/>
<path d="M4500 4330 c0 -6 7 -10 15 -10 8 0 15 2 15 4 0 2 -7 6 -15 10 -8 3
-15 1 -15 -4z"/>
<path d="M1346 4322 c-3 -5 1 -9 9 -9 8 0 12 4 9 9 -3 4 -7 8 -9 8 -2 0 -6 -4
-9 -8z"/>
<path d="M3343 4285 c0 -22 2 -30 4 -17 2 12 2 30 0 40 -3 9 -5 -1 -4 -23z"/>
<path d="M903 4295 c0 -8 4 -12 9 -9 5 3 6 10 3 15 -9 13 -12 11 -12 -6z"/>
<path d="M4497 4299 c7 -7 15 -10 18 -7 3 3 -2 9 -12 12 -14 6 -15 5 -6 -5z"/>
<path d="M4556 4295 c10 -8 23 -15 28 -15 6 0 1 7 -10 15 -10 8 -23 15 -28 15
-6 0 -1 -7 10 -15z"/>
<path d="M1318 4293 c7 -3 16 -2 19 1 4 3 -2 6 -13 5 -11 0 -14 -3 -6 -6z"/>
<path d="M930 4281 c0 -13 -70 -52 -81 -46 -5 4 -9 -1 -9 -9 0 -10 -8 -15 -22
-13 -15 1 -22 -3 -20 -12 2 -9 -4 -12 -17 -8 -13 3 -18 1 -15 -8 4 -8 -8 -18
-30 -26 -20 -7 -36 -16 -36 -21 0 -4 -16 -15 -35 -24 -19 -9 -35 -20 -35 -24
0 -5 62 28 138 73 75 44 149 87 165 94 31 17 32 19 12 27 -8 3 -15 1 -15 -3z"/>
<path d="M1255 4271 c-3 -6 -26 -20 -51 -33 -62 -31 -66 -42 -5 -15 27 12 54
30 60 40 6 9 9 17 7 17 -3 0 -7 -4 -11 -9z"/>
<path d="M4547 4269 c7 -7 15 -10 18 -7 3 3 -2 9 -12 12 -14 6 -15 5 -6 -5z"/>
<path d="M4627 4255 c24 -17 73 -37 73 -30 0 6 -76 45 -87 45 -4 0 2 -7 14
-15z"/>
<path d="M950 4018 c0 -128 -1 -353 -3 -500 -1 -147 1 -260 5 -250 5 14 7 13
7 -5 1 -13 -4 -23 -10 -23 -5 0 -7 -5 -3 -11 7 -12 7 -132 -1 -189 -4 -26 -3
-30 4 -15 8 19 8 19 12 1 2 -11 4 260 4 602 0 342 -3 622 -7 622 -5 0 -8 -105
-8 -232z"/>
<path d="M4595 4237 c23 -16 55 -28 55 -22 0 6 -56 35 -67 35 -4 0 1 -6 12
-13z"/>
<path d="M877 4202 c-130 -74 -208 -124 -204 -128 3 -3 17 2 31 11 14 9 30 14
36 10 6 -4 9 -2 8 4 -3 11 27 32 75 52 15 6 27 15 27 21 0 5 5 6 10 3 6 -3 13
1 16 9 3 9 10 14 14 11 4 -2 18 4 30 15 32 28 14 24 -43 -8z"/>
<path d="M4720 4205 c7 -8 16 -15 20 -15 3 0 7 7 7 15 0 8 -9 15 -20 15 -16 0
-17 -3 -7 -15z"/>
<path d="M1048 4199 c-10 -5 -18 -15 -18 -21 0 -9 3 -9 12 0 7 7 19 12 28 12
10 0 5 -8 -14 -25 -16 -14 -27 -27 -24 -30 3 -3 11 1 18 10 7 8 16 15 20 15
11 0 6 -154 -5 -162 -6 -5 -5 -8 3 -8 6 0 12 -11 12 -25 0 -14 -5 -25 -11 -25
-5 0 -7 -5 -3 -11 4 -7 8 -55 9 -108 1 -77 -2 -98 -14 -108 -14 -11 -14 -12 2
-13 18 0 24 -20 6 -20 -9 0 -9 -4 0 -14 14 -17 11 -96 -3 -96 -6 0 -4 -5 4
-10 11 -7 11 -10 2 -10 -7 0 -10 -5 -6 -11 10 -17 11 -169 1 -169 -5 0 -4 -7
3 -15 10 -12 10 -18 0 -30 -7 -8 -8 -15 -3 -15 5 0 10 -7 10 -15 0 -8 -4 -15
-9 -15 -5 0 -6 -6 -1 -12 12 -18 12 -358 0 -358 -5 0 -4 -6 2 -14 17 -20 4
-66 -17 -59 -11 3 -7 -4 8 -17 l25 -22 3 683 c1 376 0 694 -3 707 -6 24 -12
26 -37 11z"/>
<path d="M1110 4196 c0 -3 9 -10 20 -16 11 -6 20 -8 20 -6 0 3 -9 10 -20 16
-11 6 -20 8 -20 6z"/>
<path d="M4685 4188 c11 -6 23 -16 27 -22 5 -7 8 -8 8 0 0 15 -22 34 -39 34
-12 -1 -11 -4 4 -12z"/>
<path d="M4765 4180 c4 -6 25 -19 48 -31 l42 -20 -25 20 c-14 11 -31 21 -37
21 -7 0 -13 5 -13 10 0 6 -5 10 -11 10 -5 0 -7 -5 -4 -10z"/>
<path d="M4737 4159 c7 -7 15 -10 18 -7 3 3 -2 9 -12 12 -14 6 -15 5 -6 -5z"/>
<path d="M1117 4133 c-6 -11 0 -73 7 -80 3 -4 6 15 6 40 0 45 -4 56 -13 40z"/>
<path d="M4787 4129 c7 -7 15 -10 18 -7 3 3 -2 9 -12 12 -14 6 -15 5 -6 -5z"/>
<path d="M1121 4024 c0 -11 3 -14 6 -6 3 7 2 16 -1 19 -3 4 -6 -2 -5 -13z"/>
<path d="M1333 3931 l-62 -36 -1 -585 c0 -419 3 -581 11 -573 7 7 11 181 10
569 0 308 2 567 5 577 3 9 10 15 15 12 5 -4 9 -1 9 5 0 7 7 9 15 6 9 -3 18 1
21 8 3 8 12 17 20 20 12 4 13 -79 11 -564 -1 -314 1 -570 6 -570 4 0 7 263 7
585 0 322 -1 585 -2 584 -2 -1 -31 -17 -65 -38z"/>
<path d="M1421 3612 c1 -196 4 -343 6 -327 6 39 40 174 59 234 21 65 95 242
112 268 7 12 10 28 6 34 -4 8 -3 9 4 5 7 -4 12 -3 12 2 0 5 -10 14 -22 20 -28
14 -61 35 -68 42 -3 3 -29 22 -57 43 l-53 37 1 -358z m90 279 c20 -14 46 -33
58 -41 32 -22 23 -74 -18 -108 -9 -8 -10 -11 -3 -7 17 9 15 1 -8 -40 -11 -19
-17 -35 -14 -35 4 0 2 -6 -3 -12 -5 -7 -18 -39 -28 -70 -10 -31 -21 -55 -24
-53 -3 1 -7 -12 -8 -30 -1 -18 -8 -46 -17 -62 -14 -26 -15 -26 -16 -5 0 12 6
22 13 22 8 0 9 3 1 8 -7 5 -11 86 -13 245 l-1 238 22 -12 c12 -7 39 -24 59
-38z"/>
<path d="M1494 3942 c3 -6 34 -29 68 -52 46 -31 64 -38 72 -29 8 9 8 10 -1 5
-6 -3 -18 1 -26 9 -9 8 -18 15 -22 15 -4 0 -27 14 -52 32 -25 17 -43 26 -39
20z"/>
<path d="M1117 3933 c-11 -10 -8 -43 3 -43 6 0 10 11 10 25 0 26 -2 29 -13 18z"/>
<path d="M2362 3901 c-11 -7 -11 -9 2 -14 10 -4 16 -1 16 8 0 17 -1 17 -18 6z"/>
<path d="M2275 3860 c-12 -5 4 -6 40 -3 33 3 62 7 64 9 9 8 -85 2 -104 -6z"/>
<path d="M1642 3841 c2 -5 39 -33 84 -63 44 -30 117 -81 161 -112 77 -54 82
-56 92 -37 14 25 14 42 0 19 -14 -25 -23 -23 -62 12 -19 17 -39 30 -45 30 -6
0 -12 3 -14 8 -5 11 -66 52 -79 52 -6 0 -9 7 -6 15 4 8 1 17 -5 21 -7 4 -8 3
-4 -4 12 -19 -5 -14 -40 13 -19 14 -37 25 -40 24 -4 0 -11 6 -16 15 -9 17 -32
23 -26 7z"/>
<path d="M2228 3843 c-16 -4 -18 -18 -16 -131 l2 -127 3 115 c3 88 7 118 20
132 9 10 14 17 12 17 -2 -1 -12 -3 -21 -6z"/>
<path d="M1597 3748 c-59 -123 -69 -150 -57 -162 8 -8 9 -6 5 5 -4 10 -2 20 4
24 6 3 11 15 11 26 0 11 5 17 10 14 6 -4 10 -3 9 2 -5 28 2 53 14 47 6 -4 9
-4 5 1 -4 4 2 25 12 46 21 41 44 62 34 32 -5 -15 -4 -16 6 -3 9 11 13 12 17 3
2 -7 8 -13 12 -13 17 0 169 -109 163 -116 -4 -4 -2 -4 4 -1 6 3 20 -2 30 -12
11 -9 28 -22 38 -28 20 -11 31 -43 15 -43 -5 0 -8 -3 -7 -7 4 -15 -14 -53 -22
-48 -4 3 -6 -5 -3 -17 3 -16 2 -19 -4 -10 -6 8 -10 -3 -10 -32 -1 -24 -4 -50
-8 -56 -4 -6 -9 -33 -10 -60 -4 -56 -20 -75 -92 -115 -45 -25 -81 -52 -58 -44
41 15 164 92 159 100 -3 5 0 42 7 82 6 39 12 80 12 90 1 9 5 17 9 17 4 0 8 6
8 13 0 8 11 36 25 63 23 46 24 50 7 61 -9 7 -22 16 -27 21 -6 4 -63 44 -128
88 -65 43 -127 85 -137 92 -17 12 -21 8 -53 -60z"/>
<path d="M1122 3750 c0 -14 2 -19 5 -12 2 6 2 18 0 25 -3 6 -5 1 -5 -13z"/>
<path d="M1117 3670 c-4 -14 -6 -36 -6 -50 1 -18 4 -14 10 14 10 44 6 75 -4
36z"/>
<path d="M1996 3626 c-15 -24 -14 -25 22 -48 53 -32 62 -34 25 -4 -24 20 -31
32 -27 51 6 31 1 32 -20 1z"/>
<path d="M1957 3552 c-36 -82 -57 -149 -56 -177 0 -29 1 -29 10 -7 5 13 7 27
4 32 -7 11 27 93 44 106 8 6 11 15 8 20 -3 6 -2 16 3 24 8 13 14 12 44 -4 20
-10 33 -23 30 -28 -3 -5 -1 -7 3 -6 5 2 30 -10 56 -27 l47 -29 -23 -22 c-14
-12 -33 -22 -43 -21 -11 1 -18 -3 -17 -9 3 -15 -74 -57 -89 -48 -7 5 -8 3 -4
-5 5 -8 0 -14 -13 -18 -12 -3 -21 -9 -21 -14 0 -5 -7 -9 -16 -9 -9 0 -14 6
-11 13 3 8 -1 14 -9 14 -9 0 -14 -11 -14 -28 l0 -29 38 22 c20 12 73 41 117
66 44 24 87 50 95 57 8 7 21 14 28 16 7 3 -34 37 -91 76 l-105 72 -15 -37z"/>
<path d="M1501 3512 c-11 -37 -21 -72 -21 -77 1 -16 26 46 39 93 20 71 6 58
-18 -16z"/>
<path d="M4510 3561 c14 -11 31 -21 39 -21 18 0 14 4 -29 24 l-35 17 25 -20z"/>
<path d="M2208 3562 c-2 -4 -1 -28 2 -54 l5 -47 25 20 c24 20 24 21 3 16 -19
-4 -23 -1 -23 19 0 29 11 31 35 4 10 -11 22 -17 27 -13 6 3 13 1 17 -4 3 -5
29 -21 56 -36 39 -21 45 -22 25 -6 -13 11 -45 32 -70 46 -25 14 -57 34 -72 44
-15 10 -28 15 -30 11z"/>
<path d="M1112 3540 c0 -14 2 -19 5 -12 2 6 2 18 0 25 -3 6 -5 1 -5 -13z"/>
<path d="M2315 3543 c-4 -11 0 -11 18 -2 31 16 32 18 8 16 -11 -1 -23 -7 -26
-14z"/>
<path d="M2354 3524 c-18 -14 -18 -15 4 -4 12 6 22 13 22 15 0 8 -5 6 -26 -11z"/>
<path d="M4490 3533 c8 -3 30 -14 48 -25 17 -11 32 -17 32 -15 0 9 -67 47 -81
46 -11 0 -10 -2 1 -6z"/>
<path d="M4577 3519 c7 -7 15 -10 18 -7 3 3 -2 9 -12 12 -14 6 -15 5 -6 -5z"/>
<path d="M4625 3490 c3 -5 10 -10 16 -10 5 0 9 5 9 10 0 6 -7 10 -16 10 -8 0
-12 -4 -9 -10z"/>
<path d="M2248 3468 l-37 -21 -3 -101 c-2 -56 -1 -131 2 -168 l5 -67 25 20
c22 18 23 19 3 9 -23 -10 -23 -9 -23 48 l0 58 56 37 c31 20 52 37 47 37 -6 0
-25 -10 -44 -23 -19 -13 -40 -26 -46 -31 -10 -5 -13 14 -13 84 0 66 3 89 12
84 7 -4 8 -3 4 4 -4 7 3 16 17 21 14 6 28 15 32 20 8 15 6 14 -37 -11z"/>
<path d="M4600 3470 c14 -10 27 -17 29 -14 6 5 -31 33 -44 33 -5 1 1 -8 15
-19z"/>
<path d="M4667 3469 c7 -7 15 -10 18 -7 3 3 -2 9 -12 12 -14 6 -15 5 -6 -5z"/>
<path d="M4655 3440 c27 -12 43 -12 25 0 -8 5 -22 9 -30 9 -10 0 -8 -3 5 -9z"/>
<path d="M2170 3419 c-9 -8 -20 -15 -25 -16 -10 -2 -146 -78 -217 -122 -21
-13 -35 -27 -32 -32 3 -5 17 2 32 16 35 32 118 75 128 67 4 -4 4 -1 -1 7 -6
11 -3 13 14 8 13 -3 20 -3 17 0 -7 7 35 39 47 35 4 -1 7 2 7 7 0 5 8 8 17 7
14 -2 16 -15 16 -79 0 -68 -3 -79 -24 -97 -13 -10 -29 -19 -35 -20 -5 0 -26
-12 -45 -26 -50 -37 -105 -62 -119 -54 -7 4 -21 32 -31 61 -10 30 -18 44 -19
33 0 -30 24 -85 50 -112 28 -30 62 -42 108 -41 33 1 31 2 -21 14 -58 13 -81
24 -61 32 6 2 53 28 104 58 51 30 94 55 96 55 2 0 2 -24 0 -52 -2 -29 -5 -58
-5 -64 -1 -11 -47 -29 -64 -25 -5 1 -6 -3 -2 -9 5 -8 68 10 82 24 2 2 2 79 1
171 -3 151 -5 167 -18 154z"/>
<path d="M1112 3395 c0 -16 2 -22 5 -12 2 9 2 23 0 30 -3 6 -5 -1 -5 -18z"/>
<path d="M1462 3368 c-30 -134 -53 -358 -38 -358 11 0 76 43 76 49 0 4 6 8 13
8 14 0 174 90 182 103 2 4 -7 8 -20 8 -14 0 -28 -4 -31 -9 -3 -5 3 -6 12 -2
11 4 15 3 11 -5 -4 -6 -21 -13 -38 -17 -17 -4 -28 -9 -25 -12 10 -10 -66 -45
-85 -40 -11 3 -17 2 -14 -2 5 -9 -40 -51 -55 -51 -9 0 -15 37 -11 70 1 8 2 26
2 40 1 24 14 115 24 175 3 17 8 45 12 63 9 53 -3 36 -15 -20z"/>
<path d="M2261 3417 c32 -26 69 -47 69 -40 0 9 -52 43 -66 43 -4 0 -5 -1 -3
-3z"/>
<path d="M751 3394 c0 -11 3 -14 6 -6 3 7 2 16 -1 19 -3 4 -6 -2 -5 -13z"/>
<path d="M2260 3386 c0 -3 9 -10 20 -16 11 -6 20 -8 20 -6 0 3 -9 10 -20 16
-11 6 -20 8 -20 6z"/>
<path d="M2365 3284 c-11 -8 -18 -17 -15 -19 3 -2 -3 -13 -12 -25 -10 -11 -14
-20 -10 -20 7 0 37 35 56 68 9 16 6 15 -19 -4z"/>
<path d="M1372 3255 c0 -16 2 -22 5 -12 2 9 2 23 0 30 -3 6 -5 -1 -5 -18z"/>
<path d="M1838 3228 c-21 -11 -35 -24 -32 -29 3 -5 19 0 35 11 29 21 40 15 17
-9 -11 -10 -9 -11 6 -5 16 6 18 4 14 -13 -3 -12 -2 -27 3 -34 15 -25 17 -4 6
47 l-12 51 -37 -19z"/>
<path d="M1110 3215 c0 -14 4 -25 9 -25 4 0 6 11 3 25 -2 14 -6 25 -8 25 -2 0
-4 -11 -4 -25z"/>
<path d="M2367 3233 c-10 -9 -9 -33 1 -33 4 0 8 9 8 20 0 23 0 22 -9 13z"/>
<path d="M1605 3094 l-180 -104 3 -67 c2 -37 6 -73 10 -80 4 -7 7 20 5 60 l-2
73 56 37 c31 20 60 37 64 37 5 0 9 4 9 10 0 5 7 6 17 3 10 -4 14 -2 10 4 -4 7
5 14 22 18 16 3 31 12 34 18 3 7 32 26 65 42 34 17 63 36 66 43 3 6 4 12 3 11
-1 0 -83 -47 -182 -105z"/>
<path d="M2280 3180 c-8 -5 -12 -12 -9 -15 4 -3 12 1 19 10 14 17 11 19 -10 5z"/>
<path d="M2299 3153 c-13 -16 -12 -17 4 -4 16 13 21 21 13 21 -2 0 -10 -8 -17
-17z"/>
<path d="M1123 3060 c0 -47 2 -66 4 -42 2 23 2 61 0 85 -2 23 -4 4 -4 -43z"/>
<path d="M2213 3015 c0 -44 2 -61 4 -37 2 23 2 59 0 80 -2 20 -4 1 -4 -43z"/>
<path d="M2178 3075 c-6 -6 2 -258 8 -264 2 -2 4 57 4 132 0 76 -1 137 -3 137
-2 0 -6 -2 -9 -5z"/>
<path d="M1960 3061 c0 -9 30 -24 36 -18 2 1 -6 8 -16 15 -11 7 -20 8 -20 3z"/>
<path d="M2130 3050 c-13 -8 -13 -10 2 -10 9 0 20 5 23 10 8 13 -5 13 -25 0z"/>
<path d="M2033 3033 c15 -2 39 -2 55 0 15 2 2 4 -28 4 -30 0 -43 -2 -27 -4z"/>
<path d="M778 2984 c12 -8 30 -13 40 -11 13 4 12 5 -5 6 -12 0 -25 6 -28 11
-3 6 -11 10 -18 10 -6 0 -1 -7 11 -16z"/>
<path d="M950 2988 c0 -9 -2 -31 -5 -49 -4 -29 -3 -30 4 -9 8 23 9 24 10 3 1
-30 -19 -40 -35 -18 -8 10 -16 16 -19 13 -7 -6 43 -48 56 -48 9 0 4 109 -6
118 -3 3 -5 -2 -5 -10z"/>
<path d="M760 2964 c8 -10 15 -20 16 -22 1 -2 4 1 7 5 3 5 -4 15 -16 23 -21
12 -21 12 -7 -6z"/>
<path d="M800 2942 c0 -5 16 -16 35 -25 19 -9 35 -15 35 -13 0 2 -16 13 -35
25 -19 11 -35 17 -35 13z"/>
<path d="M875 2930 c3 -5 8 -10 11 -10 2 0 4 5 4 10 0 6 -5 10 -11 10 -5 0 -7
-4 -4 -10z"/>
<path d="M1123 2895 c0 -22 2 -30 4 -17 2 12 2 30 0 40 -3 9 -5 -1 -4 -23z"/>
<path d="M2212 2905 c0 -16 2 -22 5 -12 2 9 2 23 0 30 -3 6 -5 -1 -5 -18z"/>
<path d="M884 2891 c3 -4 20 -14 37 -21 l30 -13 -3 -134 c-2 -73 0 -133 4
-133 8 0 -2 -42 -16 -59 -8 -10 -6 -12 9 -10 18 4 19 14 20 169 l0 165 -39 23
c-41 24 -50 27 -42 13z"/>
<path d="M990 2695 c0 -80 4 -145 9 -145 4 0 7 59 5 130 -4 143 1 154 48 102
22 -25 25 -37 24 -99 -1 -61 -5 -73 -27 -94 -14 -13 -18 -18 -9 -11 9 6 22 12
28 12 20 0 14 -16 -10 -29 -19 -9 -20 -10 -3 -6 19 4 20 -1 23 -105 l2 -109
-32 -35 c-33 -36 -63 -51 -37 -19 10 12 10 14 1 9 -9 -6 -12 19 -9 113 1 67
-1 121 -5 121 -4 0 -8 -63 -10 -140 -2 -77 -1 -140 1 -140 1 0 25 12 52 28
l49 27 0 236 0 236 -50 31 -50 31 0 -144z"/>
<path d="M1112 2750 c0 -14 2 -19 5 -12 2 6 2 18 0 25 -3 6 -5 1 -5 -13z"/>
<path d="M1205 2751 c-3 -5 -1 -12 5 -16 5 -3 10 1 10 9 0 18 -6 21 -15 7z"/>
<path d="M1110 2666 c0 -35 15 -40 16 -5 1 16 -3 29 -7 29 -5 0 -9 -11 -9 -24z"/>
<path d="M1229 2598 c-5 -40 -6 -70 -8 -134 l-1 -70 -40 -23 c-22 -12 -44 -19
-50 -16 -11 7 -26 -22 -17 -31 3 -3 27 9 55 25 27 17 54 31 61 31 7 0 11 36
11 115 0 63 -2 115 -5 115 -3 0 -6 -6 -6 -12z"/>
<path d="M3057 2568 c-6 -33 -1 -257 7 -265 3 -3 6 60 6 140 0 143 -3 171 -13
125z"/>
<path d="M939 2493 c-10 -11 -10 -14 -1 -9 9 6 12 -37 12 -200 0 -184 -2 -205
-15 -194 -9 7 -18 10 -21 7 -4 -3 -13 0 -21 8 -8 8 -20 15 -26 15 -7 0 -1 -9
12 -19 14 -10 32 -16 40 -13 9 3 13 2 9 -3 -7 -7 18 -34 32 -35 3 0 5 104 5
230 0 127 -3 230 -6 230 -4 0 -13 -8 -20 -17z"/>
<path d="M1271 2292 c-1 -114 2 -183 8 -187 15 -9 53 14 45 27 -4 7 -3 8 4 4
6 -4 25 0 42 9 28 15 30 19 30 75 0 33 -4 60 -9 60 -4 0 -7 -18 -5 -41 3 -46
-4 -72 -17 -63 -5 3 -6 -3 -2 -12 4 -10 2 -15 -4 -11 -5 3 -21 0 -36 -8 -15
-8 -27 -11 -28 -7 0 4 -2 76 -3 160 -1 90 -6 156 -13 163 -7 7 -11 -43 -12
-169z"/>
<path d="M3229 2382 c-24 -15 -65 -38 -91 -51 -47 -22 -76 -47 -41 -34 23 8
183 103 183 109 0 7 -5 5 -51 -24z"/>
<path d="M5363 2366 c-9 -11 -9 -15 0 -19 7 -3 14 3 14 14 2 22 2 22 -14 5z"/>
<path d="M1190 2338 c-24 -15 -39 -28 -34 -28 6 0 19 7 30 15 10 8 22 15 25
15 3 0 7 -29 8 -65 2 -62 0 -66 -24 -75 -15 -6 -24 -14 -21 -19 6 -9 -29 -24
-50 -22 -6 1 -11 -6 -11 -14 0 -8 2 -15 4 -15 12 0 116 65 119 75 3 6 4 45 2
87 l-3 74 -45 -28z"/>
<path d="M1115 2290 c-3 -5 -2 -10 4 -10 5 0 13 5 16 10 3 6 2 10 -4 10 -5 0
-13 -4 -16 -10z"/>
<path d="M1080 2282 c0 -4 -20 -18 -45 -32 l-45 -25 0 -82 c0 -46 2 -83 5 -83
2 0 25 12 50 27 l45 28 0 87 c0 49 -2 88 -5 88 -3 0 -5 -3 -5 -8z m-5 -116
c-4 -23 -16 -50 -27 -61 -11 -11 -17 -13 -12 -5 6 12 5 13 -8 3 -21 -18 -28
-7 -28 45 0 31 6 49 18 59 9 8 11 12 5 8 -7 -3 -13 -4 -13 -1 0 3 12 12 28 20
25 13 28 13 35 -6 4 -12 5 -40 2 -62z"/>
<path d="M1110 2265 c0 -5 5 -17 10 -25 5 -8 10 -10 10 -5 0 6 -5 17 -10 25
-5 8 -10 11 -10 5z"/>
<path d="M746 2182 c15 -14 104 -63 104 -58 0 6 -95 66 -105 66 -5 0 -5 -4 1
-8z"/>
<path d="M724 2161 c8 -12 66 -44 71 -39 2 2 -15 14 -37 27 -22 12 -37 18 -34
12z"/>
<path d="M860 2081 c0 -5 7 -11 15 -15 8 -3 15 -1 15 3 0 5 -7 11 -15 15 -8 3
-15 1 -15 -3z"/>
<path d="M1038 2062 c-47 -27 -48 -27 -48 -79 0 -43 3 -51 15 -47 12 5 13 10
5 20 -20 23 -7 66 25 85 41 24 42 24 41 -21 -1 -60 12 -48 16 15 1 30 1 55 -2
54 -3 0 -26 -12 -52 -27z"/>
<path d="M900 2061 c0 -4 10 -13 23 -18 19 -9 24 -20 26 -58 1 -26 -3 -53 -10
-61 -6 -8 -9 -17 -5 -21 3 -3 6 -1 6 6 0 7 5 9 10 6 6 -4 10 17 10 57 0 59 -2
64 -30 80 -17 9 -30 14 -30 9z"/>
<path d="M4712 1944 c10 -10 20 -15 24 -12 3 4 -5 12 -18 18 -22 12 -22 12 -6
-6z"/>
<path d="M4677 1929 c14 -14 0 -26 -82 -76 -37 -22 -60 -29 -85 -27 l-35 4 25
-19 c19 -15 28 -17 38 -8 23 19 176 107 187 107 12 1 -36 29 -49 30 -6 0 -5
-5 1 -11z"/>
<path d="M4608 1827 c-76 -45 -138 -85 -138 -89 0 -4 9 -6 20 -5 10 1 17 3 14
6 -5 5 99 72 161 104 22 12 43 25 46 30 4 5 13 6 20 2 8 -5 11 -5 7 0 -4 4 0
14 10 21 48 37 -18 4 -140 -69z"/>
<path d="M925 1870 c-29 -19 -25 -29 5 -10 13 8 16 -7 20 -113 l5 -122 5 133
c3 72 3 132 0 132 -3 0 -18 -9 -35 -20z"/>
<path d="M833 1850 c-29 -17 -53 -33 -53 -36 0 -6 88 42 105 57 16 16 1 9 -52
-21z"/>
<path d="M847 1825 c-49 -34 -48 -42 2 -11 21 14 42 22 47 18 4 -4 4 -1 0 6
-9 15 -5 16 -49 -13z"/>
<path d="M4902 1843 c-8 -3 4 -15 31 -31 24 -15 52 -33 63 -39 10 -7 48 -29
84 -48 36 -20 88 -49 115 -67 81 -50 155 -90 155 -85 0 3 -22 18 -50 34 -27
15 -50 31 -50 36 0 4 -7 7 -15 7 -8 0 -15 4 -15 8 0 5 -6 9 -13 9 -7 0 -27 9
-43 20 -41 29 -169 103 -177 103 -13 0 -76 48 -70 54 7 7 4 7 -15 -1z"/>
<path d="M1500 1835 c0 -2 12 -16 28 -32 15 -15 27 -26 27 -24 0 2 10 1 23 -3
12 -4 20 -11 18 -15 -3 -4 1 -8 9 -8 17 0 85 -35 85 -44 0 -3 19 -14 43 -25
52 -23 113 -63 110 -72 -2 -4 2 -8 7 -8 6 -1 11 -2 13 -4 1 -1 11 -3 22 -5 11
-2 25 -11 31 -19 6 -9 14 -13 17 -9 4 3 7 1 7 -5 0 -7 3 -11 8 -10 12 3 62
-24 62 -34 0 -4 8 -8 18 -8 9 0 28 -9 42 -20 14 -11 30 -20 37 -20 6 0 13 -4
15 -8 4 -12 118 -72 118 -63 0 4 -12 14 -27 22 -16 8 -66 37 -113 65 -47 28
-150 89 -230 134 -80 46 -156 91 -170 100 -46 31 -200 120 -200 115z"/>
<path d="M755 1821 c-3 -5 -2 -12 3 -15 5 -3 9 1 9 9 0 17 -3 19 -12 6z"/>
<path d="M700 1770 c-9 -6 -10 -10 -3 -10 6 0 15 5 18 10 8 12 4 12 -15 0z"/>
<path d="M663 1755 c0 -8 4 -12 9 -9 4 3 8 9 8 15 0 5 -4 9 -8 9 -5 0 -9 -7
-9 -15z"/>
<path d="M737 1756 c-17 -13 -17 -14 0 -20 10 -4 14 -4 10 0 -4 4 -2 13 4 21
14 17 9 16 -14 -1z"/>
<path d="M1335 1709 c-22 -15 -46 -26 -53 -24 -7 3 -10 0 -7 -5 3 -6 1 -10 -6
-10 -7 0 -10 -3 -6 -6 6 -6 127 63 127 72 0 9 -17 1 -55 -27z"/>
<path d="M2165 1727 c-4 -10 -5 -21 -1 -24 10 -10 18 4 13 24 -4 17 -4 17 -12
0z"/>
<path d="M2202 1690 c0 -25 4 -56 8 -70 l8 -25 0 25 c0 14 -3 45 -7 70 l-8 45
-1 -45z"/>
<path d="M4925 1663 c-160 -96 -267 -159 -377 -222 l-98 -56 1 -70 c1 -67 1
-68 11 -30 5 22 7 53 5 68 -3 21 0 26 10 23 8 -3 11 -1 8 4 -3 6 2 13 12 17
10 3 26 13 36 21 9 8 17 12 17 9 0 -4 16 5 36 18 20 14 41 22 47 18 5 -3 7 -1
4 4 -4 6 8 17 26 24 17 7 46 22 62 34 17 12 44 28 60 35 17 8 32 17 35 20 21
22 132 80 142 74 6 -4 9 -3 5 2 -3 5 12 19 32 31 l38 22 44 -23 c90 -47 129
-73 122 -81 -5 -4 -2 -5 5 -1 7 4 18 3 25 -2 24 -20 109 -64 103 -53 -4 6 -53
36 -109 67 -56 32 -121 70 -144 86 -23 15 -43 28 -45 27 -2 -1 -52 -30 -113
-66z"/>
<path d="M1214 1639 c-19 -22 -19 -22 3 -10 24 12 39 31 25 31 -5 0 -17 -10
-28 -21z"/>
<path d="M1124 1591 c-29 -20 -60 -42 -70 -49 -11 -7 8 2 41 19 79 42 98 56
88 61 -4 3 -31 -11 -59 -31z"/>
<path d="M1234 1614 c-10 -8 -13 -13 -6 -9 21 11 235 -102 225 -118 -3 -6 -2
-8 3 -5 15 9 56 -11 48 -23 -4 -7 -3 -9 4 -5 14 8 74 -28 64 -39 -4 -5 -2 -5
5 -2 9 6 102 -42 123 -63 3 -3 22 -14 43 -24 20 -11 37 -23 37 -28 0 -5 4 -7
10 -3 5 3 18 -2 28 -12 10 -10 23 -19 28 -20 25 -5 138 -73 134 -80 -3 -4 2
-8 10 -8 21 0 102 -45 117 -64 7 -9 13 -13 13 -9 0 6 69 -31 150 -82 8 -5 38
-22 65 -38 82 -46 99 -56 112 -69 7 -6 31 -19 53 -29 21 -10 37 -21 34 -26 -3
-5 -2 -8 3 -7 17 3 32 -1 45 -14 7 -7 32 -21 56 -31 23 -11 42 -22 42 -26 0
-4 19 -17 43 -28 23 -11 103 -57 177 -101 l135 -81 6 -58 6 -57 1 62 2 61 -92
55 c-160 95 -441 259 -498 292 -30 17 -90 52 -132 78 -43 26 -80 47 -83 47 -2
0 -28 15 -57 34 -53 33 -357 210 -433 251 -22 12 -66 38 -97 58 -31 21 -59 37
-62 37 -2 0 -75 43 -161 95 -87 52 -162 92 -168 88 -6 -3 -7 -1 -3 5 10 17 -7
15 -30 -4z"/>
<path d="M1197 1593 c-4 -3 -7 -11 -7 -17 0 -6 5 -5 12 2 6 6 9 14 7 17 -3 3
-9 2 -12 -2z"/>
<path d="M1237 1578 c-5 -16 2 -250 8 -257 3 -2 5 57 5 132 0 131 -2 152 -13
125z"/>
<path d="M1270 1547 c4 -41 5 -41 8 -8 2 18 0 37 -5 42 -5 5 -6 -11 -3 -34z"/>
<path d="M2220 1580 c0 -5 5 -10 11 -10 5 0 7 5 4 10 -3 6 -8 10 -11 10 -2 0
-4 -4 -4 -10z"/>
<path d="M1155 1570 c-3 -6 1 -7 9 -4 18 7 21 14 7 14 -6 0 -13 -4 -16 -10z"/>
<path d="M2436 1554 c-4 -9 -13 -14 -22 -10 -8 3 -13 2 -10 -2 3 -5 -11 -16
-31 -26 -19 -9 -33 -19 -30 -22 5 -5 127 63 127 71 0 13 -29 3 -34 -11z"/>
<path d="M1054 1514 c-18 -14 -18 -14 6 -3 31 14 36 19 24 19 -6 0 -19 -7 -30
-16z"/>
<path d="M984 1504 c-18 -14 -18 -15 4 -4 12 6 22 13 22 15 0 8 -5 6 -26 -11z"/>
<path d="M1015 1490 c-3 -5 -1 -10 4 -10 6 0 11 5 11 10 0 6 -2 10 -4 10 -3 0
-8 -4 -11 -10z"/>
<path d="M4415 1480 c3 -5 8 -10 11 -10 2 0 4 5 4 10 0 6 -5 10 -11 10 -5 0
-7 -4 -4 -10z"/>
<path d="M1273 1405 c0 -38 2 -53 4 -32 2 20 2 52 0 70 -2 17 -4 1 -4 -38z"/>
<path d="M4414 1413 c-4 -13 -11 -23 -16 -23 -5 0 -6 4 -3 10 3 6 -1 7 -10 3
-12 -4 -13 -8 -5 -13 7 -4 -1 -12 -22 -20 -18 -8 -35 -17 -38 -20 -9 -12 -100
-62 -100 -56 0 4 -10 -2 -22 -13 -11 -11 -26 -18 -31 -14 -6 3 -7 2 -4 -4 5
-8 -53 -45 -75 -47 -4 -1 -13 -7 -19 -13 -7 -7 -18 -13 -25 -13 -6 0 -17 -6
-23 -14 -7 -8 -35 -27 -63 -41 -80 -42 -93 -49 -99 -59 -4 -5 -11 -6 -16 -3
-13 8 -36 -8 -39 -27 -1 -9 -1 -16 1 -16 5 0 619 361 627 369 4 3 3 13 -2 21
-8 12 -11 11 -16 -7z"/>
<path d="M2271 1378 c53 -46 69 -58 80 -58 6 0 31 -13 56 -30 24 -16 48 -30
54 -30 5 0 9 -5 9 -11 0 -5 4 -8 9 -5 5 3 14 -1 21 -9 7 -8 16 -15 20 -15 16
0 119 -68 112 -74 -3 -4 1 -4 10 -1 9 4 18 0 22 -10 3 -9 10 -14 14 -11 5 3
18 -3 29 -14 12 -10 23 -16 26 -13 3 3 21 -7 40 -21 19 -14 39 -26 45 -26 7 0
12 -4 12 -10 0 -5 5 -10 11 -10 11 0 138 -76 149 -89 3 -3 16 -7 30 -9 17 -2
2 11 -45 39 -38 23 -171 101 -295 174 -124 72 -272 160 -330 194 -58 34 -93
51 -79 39z"/>
<path d="M4370 1337 c-30 -18 -170 -100 -310 -182 -140 -82 -256 -149 -256
-149 -1 -1 2 -32 6 -71 l7 -70 2 67 c1 65 2 68 34 85 32 17 38 19 58 22 5 0 8
5 4 10 -3 5 5 13 17 17 13 4 47 22 76 41 29 18 57 31 62 28 5 -3 12 1 17 8 13
23 61 49 74 41 7 -4 9 -3 6 3 -9 14 48 44 70 37 12 -4 14 -3 6 3 -9 6 -4 14
20 28 17 10 34 18 36 16 2 -1 7 1 10 6 14 20 94 64 107 59 9 -3 14 1 14 14 0
11 -1 20 -2 20 -2 0 -28 -15 -58 -33z"/>
<path d="M4421 1304 c0 -11 3 -14 6 -6 3 7 2 16 -1 19 -3 4 -6 -2 -5 -13z"/>
<path d="M2685 1273 c17 -12 173 -43 215 -43 14 0 32 5 40 10 11 8 2 10 -35
10 -27 0 -66 2 -85 5 -19 3 -43 6 -52 6 -10 0 -20 5 -23 10 -4 5 -11 7 -16 4
-5 -4 -9 -3 -9 2 0 4 -11 8 -25 8 -22 0 -23 -2 -10 -12z"/>
<path d="M4417 1273 c-10 -9 -9 -61 1 -67 5 -3 9 13 10 35 3 39 1 45 -11 32z"/>
<path d="M3050 1239 c0 -7 -15 -9 -43 -6 -24 3 -50 1 -58 -4 -9 -5 16 -9 71
-9 77 1 83 2 66 15 -24 18 -36 19 -36 4z"/>
<path d="M3300 1225 c-36 -8 -83 -14 -105 -14 l-40 -1 40 -25 c49 -30 65 -32
34 -4 -13 11 -19 18 -14 16 11 -5 153 27 163 37 7 8 0 7 -78 -9z"/>
<path d="M3102 1204 c-10 -11 -10 -14 4 -14 9 0 28 -8 42 -19 27 -18 72 -36
72 -28 0 2 -24 20 -53 39 -44 29 -55 33 -65 22z"/>
<path d="M4451 1102 c1 -56 5 -102 9 -102 7 0 1 192 -6 200 -3 2 -4 -42 -3
-98z"/>
<path d="M3800 1161 c0 -6 5 -13 10 -16 6 -3 10 1 10 9 0 9 -4 16 -10 16 -5 0
-10 -4 -10 -9z"/>
<path d="M4410 1150 c0 -5 5 -10 10 -10 6 0 10 5 10 10 0 6 -4 10 -10 10 -5 0
-10 -4 -10 -10z"/>
<path d="M3773 1100 c0 -25 2 -35 4 -22 2 12 2 32 0 45 -2 12 -4 2 -4 -23z"/>
<path d="M3800 1106 c0 -14 5 -26 10 -26 6 0 10 9 10 19 0 11 -4 23 -10 26 -6
4 -10 -5 -10 -19z"/>
<path d="M4423 1075 c0 -27 2 -38 4 -22 2 15 2 37 0 50 -2 12 -4 0 -4 -28z"/>
<path d="M3762 1025 c-6 -8 -20 -12 -30 -9 -11 4 -13 3 -5 -3 8 -6 -4 -18 -40
-38 -29 -16 -57 -30 -64 -31 -6 -1 -22 -11 -34 -23 -13 -12 -29 -21 -36 -21
-7 0 -13 -4 -13 -10 0 -5 -7 -10 -16 -10 -9 0 -30 -11 -46 -26 -17 -14 -37
-23 -45 -20 -8 3 -11 1 -8 -4 3 -6 -1 -10 -9 -10 -9 0 -16 -5 -16 -11 0 -6 -7
-8 -16 -5 -8 3 -13 2 -10 -3 7 -11 -22 -23 -36 -14 -6 3 -8 2 -5 -4 4 -6 -10
-19 -31 -29 -20 -10 -40 -23 -44 -29 -5 -6 -12 -4 -19 5 -9 13 -10 13 -6 0 7
-23 41 -14 110 28 34 21 94 57 132 79 242 140 315 185 315 194 0 13 -13 10
-28 -6z"/>
<path d="M3610 890 c-91 -55 -172 -103 -180 -107 -8 -4 -47 -25 -86 -47 l-71
-41 71 -43 c39 -23 61 -34 49 -24 -12 11 -19 23 -15 26 3 4 0 5 -8 2 -8 -3
-28 6 -45 20 -16 15 -24 23 -17 20 6 -4 12 -2 12 4 0 7 7 9 17 6 10 -4 14 -4
11 0 -10 9 36 44 57 44 9 0 33 13 53 29 20 16 47 32 60 36 12 3 22 12 22 18 0
7 5 6 11 -3 9 -13 10 -12 5 3 -5 16 4 21 41 20 7 0 11 4 10 10 -1 6 8 16 21
22 12 5 22 13 22 17 0 5 8 8 18 8 11 0 27 9 37 20 10 12 25 18 32 16 7 -3 13
-1 13 4 0 25 19 6 23 -22 l4 -33 -1 35 c0 20 3 41 8 48 14 23 -10 11 -174 -88z"/>
<path d="M3808 831 c-12 -50 -10 -87 3 -74 5 5 9 32 7 59 -3 47 -3 48 -10 15z"/>
<path d="M3773 795 c0 -27 2 -38 4 -22 2 15 2 37 0 50 -2 12 -4 0 -4 -28z"/>
<path d="M3800 680 c0 -18 4 -29 10 -25 6 3 10 15 10 25 0 10 -4 22 -10 25 -6
4 -10 -7 -10 -25z"/>
<path d="M3215 662 c-16 -10 -56 -34 -87 -52 l-58 -34 0 -158 c0 -87 3 -158 8
-158 4 0 6 70 4 155 l-3 155 26 10 c15 6 33 17 42 26 9 8 22 13 30 10 8 -3 12
-2 9 3 -3 4 13 18 35 30 37 21 42 22 58 7 10 -9 24 -16 32 -16 8 0 1 9 -16 20
-37 24 -42 24 -80 2z"/>
<path d="M3358 610 c42 -26 56 -26 17 0 -16 11 -34 20 -40 20 -5 0 5 -9 23
-20z"/>
<path d="M3043 350 c0 -47 2 -66 4 -42 2 23 2 61 0 85 -2 23 -4 4 -4 -43z"/>
</g>
</svg>
