<?xml version="1.0" standalone="no"?>
<!DOCTYPE svg PUBLIC "-//W3C//DTD SVG 20010904//EN"
 "http://www.w3.org/TR/2001/REC-SVG-20010904/DTD/svg10.dtd">
<svg version="1.0" xmlns="http://www.w3.org/2000/svg"
 width="512.000000pt" height="512.000000pt" viewBox="0 0 512.000000 512.000000"
 preserveAspectRatio="xMidYMid meet">
<metadata>
Created by potrace 1.16, written by Peter Selinger 2001-2019
</metadata>
<g transform="translate(0.000000,512.000000) scale(0.100000,-0.100000)"
fill="#000000" stroke="none">
<path d="M0 2560 l0 -2560 2560 0 2560 0 0 2560 0 2560 -2560 0 -2560 0 0
-2560z m4670 485 l0 -1955 -317 -2 -318 -3 -3 -482 -2 -483 -1790 0 -1790 0 0
2440 0 2440 2110 0 2110 0 0 -1955z"/>
<path d="M2564 4494 c-18 -14 -18 -15 4 -4 12 6 22 13 22 15 0 8 -5 6 -26 -11z"/>
<path d="M2164 4264 c-18 -14 -18 -15 4 -4 12 6 22 13 22 15 0 8 -5 6 -26 -11z"/>
<path d="M2905 4171 c-71 -43 -200 -118 -285 -168 l-155 -89 -2 -377 c-2 -284
0 -377 9 -377 9 0 9 -3 0 -12 -12 -12 -18 -148 -6 -148 3 0 15 5 27 11 16 7
15 5 -5 -11 l-27 -21 6 -237 c5 -231 -1 -302 -32 -397 -5 -17 -5 -17 7 2 12
20 16 23 36 23 4 0 1 4 -7 9 -9 6 -5 9 13 9 24 0 25 -2 9 -14 -14 -10 -16 -15
-5 -25 8 -9 12 -9 12 -2 0 7 9 15 21 18 16 5 18 9 8 21 -10 12 -9 13 4 9 8 -4
18 -1 23 6 4 8 3 10 -4 5 -7 -4 -12 -2 -12 3 0 6 5 11 10 11 6 0 10 9 10 20 0
15 6 19 22 16 29 -4 100 12 113 26 7 7 6 9 -1 5 -7 -4 -14 2 -17 13 -3 11 -1
18 4 14 5 -3 9 -1 9 4 0 5 8 12 18 14 22 6 38 5 35 -3 -1 -4 8 -2 21 4 22 10
22 13 7 24 -14 12 -13 13 9 8 23 -6 26 -3 28 27 5 61 25 60 35 -2 4 -23 7 333
8 863 0 209 -1 230 -18 243 -16 13 -15 13 8 3 23 -9 36 -5 112 38 l87 48 0
233 c0 127 -1 232 -2 231 -2 0 -61 -35 -133 -78z m-285 -347 c0 -2 -13 2 -30
11 -16 9 -30 18 -30 21 0 2 14 -2 30 -11 17 -9 30 -18 30 -21z m50 -30 c0 -2
-9 0 -20 6 -11 6 -20 13 -20 16 0 2 9 0 20 -6 11 -6 20 -13 20 -16z m50 -30
c0 -2 -9 0 -20 6 -11 6 -20 13 -20 16 0 2 9 0 20 -6 11 -6 20 -13 20 -16z
m120 -399 c0 -2 -10 -9 -22 -15 -22 -11 -22 -10 -4 4 21 17 26 19 26 11z m-50
-30 c0 -2 -10 -9 -22 -15 -22 -11 -22 -10 -4 4 21 17 26 19 26 11z m-140 -80
c0 -2 -10 -9 -22 -15 -22 -11 -22 -10 -4 4 21 17 26 19 26 11z m-50 -30 c0 -2
-10 -9 -22 -15 -22 -11 -22 -10 -4 4 21 17 26 19 26 11z m-70 -40 c0 -2 -10
-9 -22 -15 -22 -11 -22 -10 -4 4 21 17 26 19 26 11z m220 -30 c0 -2 -10 -9
-22 -15 -22 -11 -22 -10 -4 4 21 17 26 19 26 11z m-55 -34 c-16 -14 -105 -63
-105 -58 0 5 101 66 110 67 2 0 0 -4 -5 -9z m-115 -66 c0 -2 -13 -11 -30 -20
-38 -19 -40 -11 -2 9 31 17 32 18 32 11z"/>
<path d="M1965 4148 c-60 -33 -945 -548 -954 -555 -2 -2 -2 -6 2 -9 3 -4 23 4
44 16 21 13 54 32 73 42 213 121 847 492 860 504 17 17 3 18 -25 2z"/>
<path d="M3375 3970 c-33 -20 -116 -70 -185 -110 -69 -41 -168 -99 -220 -130
l-95 -57 -2 -729 c-2 -757 -6 -830 -45 -907 l-19 -38 23 11 c21 9 21 9 3 -2
-11 -7 -31 -26 -45 -41 -14 -16 -35 -40 -48 -54 -20 -22 -21 -26 -8 -36 8 -7
20 -34 26 -61 13 -58 34 -102 53 -109 21 -8 97 11 134 34 51 32 108 103 133
166 33 85 37 199 36 954 l-1 667 168 98 167 98 0 143 c0 79 -3 143 -7 142 -5
0 -35 -18 -68 -39z m-425 -336 c0 -2 -13 2 -30 11 -16 9 -30 18 -30 21 0 2 14
-2 30 -11 17 -9 30 -18 30 -21z m150 -1478 c0 -2 -7 -7 -16 -10 -8 -3 -12 -2
-9 4 6 10 25 14 25 6z m-40 -21 c0 -2 -13 -11 -30 -20 -38 -19 -40 -11 -2 9
31 17 32 18 32 11z m-70 -40 c0 -2 -13 -11 -30 -20 -38 -19 -40 -11 -2 9 31
17 32 18 32 11z m-70 -40 c0 -2 -10 -9 -22 -15 -22 -11 -22 -10 -4 4 21 17 26
19 26 11z"/>
<path d="M1894 3904 c-18 -14 -18 -15 4 -4 12 6 22 13 22 15 0 8 -5 6 -26 -11z"/>
<path d="M1838 3874 c-38 -20 -36 -28 2 -9 17 9 30 18 30 20 0 7 -1 6 -32 -11z"/>
<path d="M3540 3762 c-91 -54 -218 -129 -283 -166 -82 -48 -114 -72 -105 -78
7 -5 33 -19 58 -32 51 -27 66 -24 147 27 107 67 456 267 460 263 3 -2 -35 -28
-84 -56 -48 -28 -172 -102 -275 -163 l-188 -111 0 -766 c0 -422 -3 -770 -7
-774 -4 -4 -14 -31 -23 -60 -51 -162 -190 -263 -325 -234 -39 8 -60 20 -96 58
-43 44 -79 117 -79 162 0 23 -3 23 -48 -6 -34 -22 -249 -148 -387 -228 l-60
-35 2 -55 c2 -69 52 -202 99 -263 37 -49 42 -60 20 -48 -48 27 -118 174 -138
291 -12 69 -12 70 -64 101 -29 17 -54 31 -57 31 -2 0 2 -35 10 -77 16 -93 57
-180 114 -246 40 -46 118 -107 143 -111 7 -1 35 -18 62 -38 115 -83 214 -113
354 -105 222 12 475 140 670 336 220 222 341 488 369 811 15 175 14 1571 -2
1590 -10 13 -111 80 -120 80 -2 0 -77 -44 -167 -98z m-273 -2374 c-1 -90 -3
-17 -3 162 0 179 2 252 3 163 2 -90 2 -236 0 -325z"/>
<path d="M1743 3819 c-29 -17 -53 -35 -53 -40 0 -6 -5 -7 -10 -4 -6 4 -9 3 -8
-2 2 -4 -24 -33 -56 -63 -32 -30 -77 -77 -100 -105 -22 -27 6 -2 64 56 58 58
131 123 163 144 49 32 65 46 55 45 -2 0 -27 -14 -55 -31z"/>
<path d="M1563 3717 c-40 -24 -76 -47 -80 -51 -10 -11 104 52 138 76 42 30 16
18 -58 -25z"/>
<path d="M1438 3644 c-38 -20 -36 -28 2 -9 17 9 30 18 30 20 0 7 -1 6 -32 -11z"/>
<path d="M1374 3604 c-18 -14 -18 -15 4 -4 12 6 22 13 22 15 0 8 -5 6 -26 -11z"/>
<path d="M1133 3545 c0 -22 2 -30 4 -17 2 12 2 30 0 40 -3 9 -5 -1 -4 -23z"/>
<path d="M1304 3564 c-18 -14 -18 -15 4 -4 12 6 22 13 22 15 0 8 -5 6 -26 -11z"/>
<path d="M995 2946 c0 -343 3 -622 8 -619 9 6 9 1243 0 1243 -5 0 -8 -281 -8
-624z"/>
<path d="M1459 3533 c-13 -16 -12 -17 4 -4 9 7 17 15 17 17 0 8 -8 3 -21 -13z"/>
<path d="M1215 3515 c-22 -13 -37 -25 -33 -25 9 0 78 41 78 46 0 6 -3 5 -45
-21z"/>
<path d="M1429 3493 c-13 -16 -12 -17 4 -4 9 7 17 15 17 17 0 8 -8 3 -21 -13z"/>
<path d="M3134 3449 c1 -32 3 -59 6 -59 3 0 23 11 45 25 22 13 45 24 50 24 6
1 -14 -14 -42 -32 l-53 -33 -5 -679 c-4 -376 -11 -700 -16 -724 -14 -62 -53
-140 -94 -188 -41 -48 -124 -93 -173 -93 -31 0 -33 -2 -21 -17 22 -25 90 -53
134 -53 87 0 203 87 244 183 39 92 41 126 41 892 l0 745 -37 23 c-83 52 -79
53 -79 -14z"/>
<path d="M1130 3478 c0 -6 -8 -17 -17 -24 -17 -13 -17 -14 0 -8 16 6 17 -15
18 -332 1 -187 1 -386 0 -444 0 -58 3 -125 7 -150 4 -25 5 175 4 443 -3 348
-1 492 7 501 9 10 8 15 -4 20 -8 3 -15 0 -15 -6z"/>
<path d="M1385 3428 c-16 -24 -22 -38 -14 -31 15 12 53 73 46 73 -2 0 -17 -19
-32 -42z"/>
<path d="M1165 3445 c11 -9 29 -21 40 -26 l20 -10 -20 16 c-11 9 -29 21 -40
26 l-20 10 20 -16z"/>
<path d="M1064 3424 c-18 -14 -18 -15 4 -4 12 6 22 13 22 15 0 8 -5 6 -26 -11z"/>
<path d="M1840 3340 c-9 -6 -10 -10 -3 -10 6 0 15 5 18 10 8 12 4 12 -15 0z"/>
<path d="M1326 3323 c-6 -14 -5 -15 5 -6 7 7 10 15 7 18 -3 3 -9 -2 -12 -12z"/>
<path d="M1799 3313 c-13 -16 -12 -17 4 -4 9 7 17 15 17 17 0 8 -8 3 -21 -13z"/>
<path d="M1739 3263 l-34 -38 38 34 c34 33 42 41 34 41 -2 0 -19 -17 -38 -37z"/>
<path d="M1266 3205 c-9 -26 -7 -32 5 -12 6 10 9 21 6 23 -2 3 -7 -2 -11 -11z"/>
<path d="M1642 3140 c-18 -29 -15 -38 4 -12 9 13 14 25 12 27 -2 2 -9 -5 -16
-15z"/>
<path d="M1835 2989 c-11 -17 1 -21 15 -4 8 9 8 15 2 15 -6 0 -14 -5 -17 -11z"/>
<path d="M1181 2954 c0 -11 3 -14 6 -6 3 7 2 16 -1 19 -3 4 -6 -2 -5 -13z"/>
<path d="M1171 2914 c0 -11 3 -14 6 -6 3 7 2 16 -1 19 -3 4 -6 -2 -5 -13z"/>
<path d="M1161 2874 c0 -11 3 -14 6 -6 3 7 2 16 -1 19 -3 4 -6 -2 -5 -13z"/>
<path d="M1545 2820 c-3 -5 -2 -10 4 -10 5 0 13 5 16 10 3 6 2 10 -4 10 -5 0
-13 -4 -16 -10z"/>
<path d="M1504 2794 c-18 -14 -18 -15 4 -4 12 6 22 13 22 15 0 8 -5 6 -26 -11z"/>
<path d="M1244 2644 c-18 -14 -18 -15 4 -4 12 6 22 13 22 15 0 8 -5 6 -26 -11z"/>
<path d="M1188 2614 c-38 -20 -36 -28 2 -9 17 9 30 18 30 20 0 7 -1 6 -32 -11z"/>
<path d="M1141 2424 c0 -11 3 -14 6 -6 3 7 2 16 -1 19 -3 4 -6 -2 -5 -13z"/>
<path d="M1804 2250 c-260 -150 -350 -203 -357 -210 -5 -4 17 -22 47 -40 l56
-32 104 64 c57 35 102 67 98 72 -3 5 0 6 6 2 14 -8 55 18 45 28 -4 4 -1 5 7 2
8 -3 26 4 40 15 24 20 24 20 2 9 -13 -6 -26 -9 -29 -7 -9 10 46 38 75 39 16 1
40 10 53 20 22 18 22 18 2 9 -13 -7 -24 -7 -27 -2 -4 5 0 12 6 14 8 3 6 6 -5
6 -15 1 -16 5 -7 21 6 11 18 20 28 20 15 1 14 2 -3 12 -33 20 -38 18 -141 -42z"/>
<path d="M1795 2095 c-174 -102 -231 -141 -233 -157 -5 -31 26 -154 56 -218
28 -60 133 -172 195 -208 20 -12 37 -20 37 -18 0 2 -16 27 -35 56 -36 54 -78
173 -88 252 l-6 46 72 42 c325 191 309 180 293 205 -8 12 -22 48 -31 79 -9 31
-19 56 -23 56 -4 0 -110 -61 -237 -135z"/>
<path d="M991 1998 c-1 -135 3 -219 9 -223 13 -8 13 391 0 420 -5 12 -9 -66
-9 -197z"/>
<path d="M2109 2057 c-68 -40 -172 -102 -232 -136 -59 -35 -109 -67 -112 -71
-3 -5 20 -23 51 -41 45 -25 60 -30 73 -21 18 12 227 137 361 214 47 27 89 53
93 58 7 6 -89 70 -105 70 -2 0 -60 -33 -129 -73z"/>
<path d="M2122 1909 c-272 -158 -255 -138 -227 -257 34 -144 118 -257 244
-330 l68 -39 -34 56 c-40 67 -80 188 -84 256 l-3 50 182 108 182 108 -26 39
c-14 21 -33 64 -43 94 l-17 55 -242 -140z"/>
<path d="M1432 1989 c2 -16 17 -29 55 -45 70 -31 66 -4 -6 37 -52 30 -53 30
-49 8z"/>
<path d="M3852 1958 c6 -16 326 -200 341 -195 8 2 -205 137 -218 137 -2 0 -27
16 -56 35 -56 37 -73 43 -67 23z"/>
<path d="M2455 1846 c-77 -46 -186 -110 -243 -143 l-103 -60 60 -36 61 -36
232 136 c128 74 239 141 247 148 11 11 4 18 -47 44 -34 17 -63 31 -64 30 -2 0
-66 -38 -143 -83z"/>
<path d="M1750 1796 c0 -106 127 -342 179 -334 9 2 16 -3 16 -11 0 -7 11 -21
23 -29 21 -14 21 -11 -7 31 -46 68 -71 130 -91 225 l-17 86 -51 33 -52 33 0
-34z"/>
<path d="M3783 1814 c14 -17 15 -23 5 -26 -7 -3 2 -7 20 -10 18 -2 29 -2 25 1
-4 4 -21 17 -38 31 -24 20 -26 21 -12 4z"/>
<path d="M1133 1760 c0 -36 2 -50 4 -32 2 17 2 47 0 65 -2 17 -4 3 -4 -33z"/>
<path d="M1273 1756 c-95 -57 -118 -76 -92 -76 9 0 50 23 214 122 30 17 30 18
5 17 -14 -1 -71 -29 -127 -63z"/>
<path d="M3929 1720 c46 -28 85 -49 87 -48 4 5 -151 98 -163 98 -4 0 30 -23
76 -50z"/>
<path d="M998 1744 c-13 -13 -9 -149 5 -166 6 -8 111 -73 232 -143 121 -70
230 -135 243 -143 12 -8 22 -11 22 -6 0 4 10 -2 23 -13 12 -11 132 -84 267
-163 276 -161 441 -257 580 -340 162 -96 230 -132 230 -122 0 6 -26 25 -57 43
-32 18 -119 68 -193 112 -74 44 -166 97 -205 120 -38 22 -97 57 -130 77 -33
20 -85 50 -115 67 -30 17 -210 121 -399 232 -190 110 -351 201 -358 201 -7 0
-13 3 -13 8 0 4 -23 20 -50 37 -28 16 -50 32 -49 35 0 7 99 70 110 70 5 0 9 5
9 10 0 17 -17 12 -77 -24 l-58 -34 -5 75 c-3 41 -8 71 -12 67z"/>
<path d="M4210 1746 c0 -2 29 -21 64 -42 36 -21 63 -41 61 -44 -4 -7 -162
-101 -367 -220 -99 -57 -132 -80 -111 -80 11 0 96 49 485 279 16 9 28 19 28
23 0 9 -133 88 -148 88 -7 0 -12 -2 -12 -4z"/>
<path d="M1494 1664 c-18 -14 -18 -14 6 -3 31 14 36 19 24 19 -6 0 -19 -7 -30
-16z"/>
<path d="M3703 1663 c3 -15 1 -20 -9 -16 -32 12 -10 -8 49 -44 84 -53 87 -55
87 -49 0 3 -21 19 -46 37 -25 17 -55 45 -66 62 -15 24 -19 27 -15 10z"/>
<path d="M1444 1634 c-18 -14 -18 -15 4 -4 12 6 22 13 22 15 0 8 -5 6 -26 -11z"/>
<path d="M4072 1632 c25 -16 26 -19 10 -30 -14 -10 -13 -11 6 -2 29 14 28 24
-3 38 -38 17 -44 14 -13 -6z"/>
<path d="M1548 1614 c-38 -20 -36 -28 2 -9 17 9 30 18 30 20 0 7 -1 6 -32 -11z"/>
<path d="M1484 1574 c-18 -14 -18 -15 4 -4 12 6 22 13 22 15 0 8 -5 6 -26 -11z"/>
<path d="M4034 1574 c-18 -14 -18 -15 4 -4 12 6 22 13 22 15 0 8 -5 6 -26 -11z"/>
<path d="M1295 1550 c-3 -6 1 -7 9 -4 18 7 21 14 7 14 -6 0 -13 -4 -16 -10z"/>
<path d="M1434 1544 c-18 -14 -18 -15 4 -4 12 6 22 13 22 15 0 8 -5 6 -26 -11z"/>
<path d="M3984 1544 c-18 -14 -18 -15 4 -4 12 6 22 13 22 15 0 8 -5 6 -26 -11z"/>
<path d="M1265 1530 c3 -5 8 -10 11 -10 2 0 4 5 4 10 0 6 -5 10 -11 10 -5 0
-7 -4 -4 -10z"/>
<path d="M3880 1520 c19 -11 31 -19 25 -20 -5 0 -21 -10 -35 -21 -19 -16 -12
-14 25 6 50 28 90 58 47 36 -18 -10 -27 -9 -44 4 -13 8 -29 15 -38 15 -8 -1 1
-9 20 -20z"/>
<path d="M1359 1502 c-15 -13 -19 -21 -10 -26 6 -4 10 -3 9 3 -2 5 6 17 17 25
11 8 17 16 14 16 -4 0 -17 -8 -30 -18z"/>
<path d="M3800 1439 l-25 -20 33 16 c17 8 32 18 32 20 0 10 -16 4 -40 -16z"/>
<path d="M3598 1322 c-92 -54 -143 -90 -88 -62 86 45 208 123 188 120 -2 -1
-47 -27 -100 -58z"/>
<path d="M3795 1336 c-22 -12 -148 -85 -280 -161 -281 -163 -248 -142 -244
-153 3 -7 363 197 559 317 8 5 12 12 10 15 -3 3 -24 -5 -45 -18z"/>
<path d="M3454 1234 c-18 -14 -18 -15 4 -4 12 6 22 13 22 15 0 8 -5 6 -26 -11z"/>
<path d="M3348 1177 c-43 -23 -78 -45 -78 -49 0 -3 36 14 80 39 44 25 80 47
80 49 0 6 0 6 -82 -39z"/>
<path d="M3225 1106 c-11 -7 -80 -48 -152 -91 -73 -42 -133 -79 -133 -82 0 -2
3 -2 8 0 57 33 308 180 311 183 10 9 -16 2 -34 -10z"/>
<path d="M3015 885 c-126 -73 -265 -154 -308 -179 -42 -25 -82 -46 -87 -46 -6
0 -10 -7 -10 -16 0 -18 -30 -35 368 196 246 143 306 182 275 179 -5 0 -111
-60 -238 -134z"/>
<path d="M2483 993 c9 -2 23 -2 30 0 6 3 -1 5 -18 5 -16 0 -22 -2 -12 -5z"/>
<path d="M2662 995 c14 -11 49 -25 44 -17 -3 6 4 12 16 15 13 2 4 4 -20 4 -24
0 -42 0 -40 -2z"/>
<path d="M2885 905 c-22 -13 -37 -25 -33 -25 9 0 78 41 78 46 0 6 -3 5 -45
-21z"/>
<path d="M2310 916 c0 -3 9 -10 20 -16 11 -6 20 -8 20 -6 0 3 -9 10 -20 16
-11 6 -20 8 -20 6z"/>
<path d="M2725 815 c-60 -36 -106 -65 -102 -65 10 0 217 120 217 126 0 6 0 6
-115 -61z"/>
</g>
</svg>
