<?xml version="1.0" encoding="UTF-8"?>
<svg version="1.1" xmlns="http://www.w3.org/2000/svg" width="400" height="400">
<path d="M0 0 C132 0 264 0 400 0 C400 132 400 264 400 400 C268 400 136 400 0 400 C0 268 0 136 0 0 Z " fill="#121317" transform="translate(0,0)"/>
<path d="M0 0 C0.89332031 0.64582031 0.89332031 0.64582031 1.8046875 1.3046875 C14.52279671 11.30960008 21.41537927 28.49638169 26.69921875 43.3671875 C27.7399073 46.27361498 28.85493819 49.0990081 30.0625 51.9375 C31.70948044 56.02450159 32.99454358 60.18560727 34.21875 64.4140625 C34.43302139 65.14822891 34.64729279 65.88239532 34.86805725 66.6388092 C36.63628816 72.71127033 38.37833387 78.79128447 40.12109375 84.87109375 C40.39119766 85.81272873 40.66130157 86.75436371 40.93959045 87.72453308 C41.21282639 88.67717545 41.48606232 89.62981781 41.76757812 90.61132812 C42.18052124 92.05100952 42.18052124 92.05100952 42.60180664 93.51977539 C43.15832599 95.46279695 43.71366733 97.4061563 44.26782227 99.34985352 C51.40692947 124.41106307 51.40692947 124.41106307 60.8125 148.6875 C61.23990479 149.6566333 61.66730957 150.6257666 62.10766602 151.62426758 C67.72225211 164.10285366 74.00914941 174.40471127 83.46875 184.28125 C87.68816706 188.81321647 91.52689979 193.16139875 92.5625 199.375 C91.94059475 202.27722451 91.37051738 203.26769883 89 205 C85.03499937 206.98250032 80.16211269 206.65657968 75.98046875 205.38671875 C69.96802472 202.60703485 65.0132766 198.25554471 60 194 C59.20722656 193.36578125 58.41445313 192.7315625 57.59765625 192.078125 C42.06343311 179.08678118 32.22336079 160.67708612 22.34375 143.33984375 C13.94215277 128.66992999 4.76563096 114.69052438 -12 109 C-22.5864008 106.40104727 -34.70678024 107.2956906 -44.46875 112.25390625 C-58.85488258 121.29450669 -66.83254455 136.02608379 -74.9375 150.4375 C-82.94121245 164.63932624 -91.61967189 177.31403907 -103 189 C-103.57878906 189.65226563 -104.15757813 190.30453125 -104.75390625 190.9765625 C-110.5431834 197.33170884 -120.86165816 205.51928648 -129.59375 206.203125 C-130.5528125 206.21859375 -131.511875 206.2340625 -132.5 206.25 C-133.4590625 206.27578125 -134.418125 206.3015625 -135.40625 206.328125 C-138 206 -138 206 -139.80859375 204.6484375 C-141 203 -141 203 -141.5625 200.375 C-140.45440507 193.72643041 -136.06382043 188.87572642 -131.25 184.375 C-107.75478393 161.5497996 -98.61374171 123.54652043 -90.78369141 93.01171875 C-69.72209686 12.07220775 -69.72209686 12.07220775 -42.8984375 -4.28125 C-29.22510921 -11.67223826 -12.17748848 -8.91657106 0 0 Z " fill="#5F89C0" transform="translate(224,101)"/>
</svg>
